<?xml version="1.0" standalone="no"?>
<!DOCTYPE svg PUBLIC "-//W3C//DTD SVG 1.1//EN" "http://www.w3.org/Graphics/SVG/1.1/DTD/svg11.dtd" >
<svg xmlns="http://www.w3.org/2000/svg">
<metadata></metadata>
<defs>
<font id="berthold_akzidenz_grotesk_bLt" horiz-adv-x="1067" >
<font-face units-per-em="2048" ascent="1638" descent="-410" />
<missing-glyph horiz-adv-x="555" />
<glyph unicode="&#xfb01;" d="M47 874v103h215v186q0 55 1 87t2 51.5t4 30.5t7 24q41 119 203 119q35 0 65.5 -5.5t59.5 -9.5v-119q-23 10 -48.5 17.5t-66.5 7.5q-16 0 -45.5 -7t-48.5 -48q-4 -8 -6 -16.5t-3 -23t-2 -37t-1 -60.5v-197h221v-103h-221v-874h-121v874h-215zM795 0v977h118v-977h-118z M795 1206v187h118v-187h-118z" />
<glyph unicode="&#xfb02;" d="M47 874v103h215v186q0 55 1 87t2 51.5t4 30.5t7 24q41 119 203 119q35 0 65.5 -5.5t61.5 -9.5v-119q-23 10 -48.5 17.5t-68.5 7.5q-16 0 -45.5 -7t-48.5 -48q-4 -8 -6 -16.5t-3 -23t-2 -37t-1 -60.5v-197h223v-103h-223v-874h-121v874h-215zM795 0v1446h120v-1446h-120z " />
<glyph horiz-adv-x="0" />
<glyph unicode="&#xd;" horiz-adv-x="555" />
<glyph unicode=" "  horiz-adv-x="555" />
<glyph unicode="&#x09;" horiz-adv-x="555" />
<glyph unicode="&#xa0;" horiz-adv-x="555" />
<glyph unicode="!" horiz-adv-x="425" d="M176 0v238h156v-238h-156zM188 629v829h131v-829l-18 -269h-96z" />
<glyph unicode="&#x22;" horiz-adv-x="811" d="M123 1440q0 53 32.5 73.5t61.5 20.5q18 0 37 -6q37 -16 43 -42t6 -52l-72 -523h-38l-68 496q0 10 -1 17.5t-1 15.5zM508 1424.5v15.5q0 53 31.5 73.5t60.5 20.5q18 0 37 -6q37 -16 44 -42t7 -52l-74 -523h-39l-65 496q-2 10 -2 17.5z" />
<glyph unicode="#" horiz-adv-x="1366" d="M86 530v111h358l27 199h-342v116h356l66 494h129l-70 -494h205l64 494h122l-67 -494h344v-116h-358l-27 -199h344v-111h-358l-72 -530h-127l78 530h-207l-78 -530h-119l74 530h-342zM565 641h207l27 199h-205z" />
<glyph unicode="$" horiz-adv-x="1236" d="M55 365l146 14q39 -82 89 -130t99 -73.5t91 -35t63 -13.5v582q-57 18 -128 43.5t-132.5 68.5t-102.5 106.5t-41 157.5q0 74 29 137.5t76 108.5q35 33 74.5 53.5t79.5 33t77 18.5t68 10v127h119v-127q166 -12 265 -102.5t140 -231.5l-139 -16q-18 59 -48 96t-49 53 q-51 43 -97 55.5t-72 16.5v-508q100 -27 186 -58.5t148.5 -76.5t98 -107.5t35.5 -150.5q0 -96 -38.5 -173t-104 -130.5t-150.5 -82t-175 -30.5v-188h-119v188q-49 6 -130 25.5t-167 85.5q-66 49 -113 113.5t-78 140.5zM276 1092q0 -47 17.5 -82t46.5 -64q33 -29 88 -57.5 t115 -42.5v475q-49 -2 -97.5 -16.5t-86 -42t-60.5 -70.5t-23 -100zM662 123q90 0 153.5 27.5t103 68.5t57 91t17.5 93q0 96 -76.5 159t-254.5 108v-547z" />
<glyph unicode="%" horiz-adv-x="1792" d="M63 993q0 102 20.5 188.5t60.5 149t101.5 98t141.5 35.5q96 0 158.5 -46t98.5 -117.5t49.5 -157.5t11.5 -166q-2 -86 -20.5 -168t-57.5 -144.5t-99.5 -100.5t-144.5 -38q-88 0 -149.5 41t-99.5 107.5t-54.5 150.5t-16.5 168zM170 995q0 -25 2 -61.5t9 -77.5t19.5 -81 t30.5 -70q53 -86 154 -87q68 0 109 35t64.5 89.5t32.5 118t9 118.5q0 84 -12.5 156.5t-39 126t-67.5 83t-96 29.5t-96 -30.5t-66.5 -82t-39 -120t-13.5 -146.5zM502 -43l721 1579l84 -41l-723 -1575zM1087 451q0 102 20.5 188t60.5 148.5t101.5 98.5t141.5 36 q96 0 158.5 -47.5t98.5 -119t49.5 -157.5t11.5 -164q-2 -86 -20.5 -167t-57.5 -144.5t-99.5 -101t-144.5 -37.5q-88 0 -149.5 42t-99.5 108.5t-54.5 149.5t-16.5 167zM1194 453q0 -25 2 -62t9 -78t19.5 -80.5t30.5 -70.5q53 -86 154 -86q68 0 109 34.5t64.5 89t32.5 118 t9 118.5q0 84 -12.5 157t-39 126t-67.5 82.5t-96 29.5t-96 -30.5t-66.5 -81.5t-39 -120t-13.5 -146z" />
<glyph unicode="&#x26;" horiz-adv-x="1323" d="M113 385q0 68 23.5 139.5t76.5 141.5q25 33 49.5 57.5t55 48t69.5 50t90 59.5q-12 18 -32.5 47.5t-40 69.5t-33 88.5t-13.5 103.5q0 125 77 204t210 79q131 0 207 -71t76 -183q0 -57 -20.5 -108.5t-49.5 -94.5q-45 -59 -96 -97t-113 -79q20 -33 59.5 -92.5t84.5 -126 t90 -131t78 -105.5q35 88 42 152.5t9 109.5h129q0 -23 -5.5 -64.5t-17.5 -92t-31.5 -104.5t-50.5 -103q31 -37 48.5 -59.5t29.5 -36t20.5 -21.5t16.5 -16q41 -31 71.5 -37.5t47.5 -6.5v-124q-55 0 -95 13t-75 36.5t-68 58.5t-71 80q-18 -27 -53.5 -59.5t-84.5 -61.5 t-113.5 -47t-144.5 -18q-104 0 -188 32.5t-142.5 88t-90 128t-31.5 152.5zM252 391q0 -63 25.5 -116.5t69.5 -92.5t101.5 -59.5t120.5 -20.5q68 0 122 20.5t95 47.5t68 53.5t37 38.5q-45 61 -71.5 98t-44 61.5t-29 43t-27.5 41.5q-8 14 -32.5 52t-52.5 81t-53.5 82t-35.5 53 q-45 -27 -96.5 -62.5t-95.5 -81.5t-72.5 -104.5t-28.5 -134.5zM485 1192q0 -59 29 -119.5t70 -126.5q41 20 79.5 47t69.5 60.5t49.5 72.5t18.5 84q0 20 -7.5 46t-24.5 48.5t-46 38t-74 15.5q-49 0 -80.5 -16.5t-50 -41t-26 -54t-7.5 -54.5z" />
<glyph unicode="'" horiz-adv-x="425" d="M123 1440q0 53 32.5 73.5t61.5 20.5q18 0 37 -6q37 -16 43 -42t6 -52l-72 -523h-38l-68 496q0 10 -1 17.5t-1 15.5z" />
<glyph unicode="(" horiz-adv-x="641" d="M88 692q0 84 19.5 208t75 256t153.5 259t256 219v-102q-43 -41 -78 -75t-70 -79q-66 -84 -105.5 -179t-62 -187t-30.5 -175t-8 -143q0 -141 28.5 -275t78.5 -252t116.5 -212t142.5 -156v-106q-131 82 -228 201.5t-161.5 255t-95.5 276.5t-31 266z" />
<glyph unicode=")" horiz-adv-x="641" d="M37 1526v108q131 -82 228 -201.5t160.5 -255t94.5 -276.5t31 -268q0 -84 -19.5 -207t-75 -255t-153.5 -259t-256 -219v100q43 41 78 75t70 81q66 84 105.5 178t62 186.5t30.5 175t8 142.5q0 141 -28.5 276t-77.5 252t-115.5 211t-142.5 156z" />
<glyph unicode="*" horiz-adv-x="598" d="M55 1223l31 90l168 -56v189h94v-189l162 64l31 -88l-172 -57l104 -140l-76 -59l-96 149l-98 -149l-82 59l108 140z" />
<glyph unicode="+" horiz-adv-x="1366" d="M88 535v122h537v533h120v-533h535v-122h-535v-535h-120v535h-537z" />
<glyph unicode="," horiz-adv-x="342" d="M90 0v238h162v-164q0 -72 -2 -123t-11.5 -94t-27.5 -85t-53 -96l-68 45q47 70 62.5 129.5t15.5 137.5v12h-78z" />
<glyph unicode="-" horiz-adv-x="724" d="M78 600v133h571v-133h-571z" />
<glyph unicode="." horiz-adv-x="342" d="M90 0v238h162v-238h-162z" />
<glyph unicode="/" horiz-adv-x="980" d="M20 0l789 1446h152l-785 -1446h-156z" />
<glyph unicode="0" horiz-adv-x="1193" d="M90 721q0 158 31 295t94.5 239.5t159.5 161t227 58.5q106 0 185 -37t135.5 -97.5t92.5 -140.5t57.5 -167t28.5 -175t5 -164q-2 -137 -32 -266t-91 -230.5t-156.5 -163t-230.5 -61.5q-141 0 -238.5 68t-157 175.5t-85 240.5t-25.5 264zM227 725q0 -45 4.5 -107.5 t15.5 -130t31.5 -133t53.5 -116.5q96 -150 266 -150q86 0 145.5 33t101.5 86t65.5 120.5t37 135t17.5 129t4 104.5q2 147 -20.5 270.5t-70 211.5t-118 136t-162.5 48q-94 0 -163.5 -50t-116 -136t-69 -202t-22.5 -249z" />
<glyph unicode="1" horiz-adv-x="1193" d="M330 1116v111q98 2 152.5 27.5t79 59.5t27.5 70.5t3 61.5h125v-1446h-125v1174q-78 -59 -262 -58z" />
<glyph unicode="2" horiz-adv-x="1193" d="M121 1055q0 96 34.5 174t97 132t151 84t192.5 30q121 0 212 -36t152.5 -98.5t93 -146.5t31.5 -180q0 -82 -23.5 -156t-61 -138.5t-87 -121.5t-100.5 -106q-72 -70 -150.5 -134.5t-149.5 -114.5t-125 -84t-77 -46h727v-113h-915v113l29 18q68 43 174 115.5t252 193.5 q70 57 136 119t118.5 131.5t85 151.5t32.5 178q0 88 -28.5 152.5t-77.5 107.5t-113.5 64.5t-138.5 21.5q-90 0 -156.5 -29.5t-109.5 -78t-64.5 -105.5t-21.5 -113q0 -47 12 -87t28.5 -71.5t33 -53t26.5 -33.5l-168 20q-10 23 -30.5 86.5t-20.5 153.5z" />
<glyph unicode="3" horiz-adv-x="1193" d="M88 416l137 45q-2 -104 28 -175t82 -115t118.5 -62.5t138.5 -18.5q78 0 147.5 21.5t120.5 74.5q41 41 58.5 95.5t17.5 111.5q0 78 -24.5 134.5t-59.5 90.5q-31 29 -65.5 44.5t-71.5 23.5t-77 9t-79 1h-203v113h174q49 0 98.5 2t102.5 18q78 23 130 82.5t52 165.5 q0 59 -21.5 111.5t-61 91.5t-99 62.5t-137.5 23.5q-86 0 -149.5 -28.5t-105.5 -73.5t-62.5 -102.5t-18.5 -114.5l-143 36q6 25 17 63t32.5 82t55.5 88t85 79t123 57.5t166 22.5q90 0 171 -24t143.5 -73t99 -124.5t36.5 -180.5q0 -14 -2 -40.5t-10 -58.5t-26.5 -67t-51.5 -65 q-47 -47 -106.5 -61.5t-120.5 -22.5q88 -4 152.5 -33t107.5 -76t64.5 -109.5t21.5 -133.5q0 -94 -32.5 -173t-95 -136.5t-153 -90.5t-202.5 -33q-113 0 -202 33t-152 90q-68 59 -103 143.5t-45 176.5z" />
<glyph unicode="4" horiz-adv-x="1193" d="M115 362v103l635 981h135v-971h225v-113h-225v-362h-125v362h-645zM256 475h504v768z" />
<glyph unicode="5" horiz-adv-x="1193" d="M109 381l135 41q0 -49 14 -107.5t53 -108.5t104.5 -85t166.5 -35q166 0 262 106.5t96 301.5q0 78 -19.5 150.5t-66.5 131.5q-41 47 -105.5 82t-152.5 35q-43 0 -91 -13.5t-91 -45t-78 -85t-53 -133.5l-105 13l25 819h764v-121h-645l-29 -500q16 33 42.5 64t66.5 55.5 t93.5 39.5t120.5 15q98 0 182.5 -35.5t146 -101t96 -160t34.5 -210.5q0 -106 -31.5 -201.5t-94 -166.5t-152.5 -112t-207 -41q-43 0 -90 5.5t-94.5 20.5t-92.5 43t-86 71q-35 37 -69.5 102.5t-48.5 165.5z" />
<glyph unicode="6" horiz-adv-x="1193" d="M117 678q0 57 4 133t19.5 158t46 163.5t81.5 151.5q84 113 184.5 152t211.5 39q336 0 432 -320l-133 -47q-4 27 -14.5 70t-41 84t-87 70.5t-154.5 29.5q-53 0 -108.5 -12.5t-106 -48t-92.5 -100t-70 -167.5q-16 -61 -26.5 -136t-14.5 -128q68 102 169 150.5t224 48.5 q117 0 205 -40t147.5 -107.5t89 -159t29.5 -193.5q0 -115 -36 -206t-100.5 -155.5t-154.5 -99.5t-198 -35q-125 0 -211 40t-142.5 104.5t-87 144.5t-45 158t-17.5 146.5t-3 111.5zM254 512q0 -10 3 -47t15.5 -84t37 -99.5t65.5 -95.5t103.5 -71.5t148.5 -28.5 q72 0 140.5 23.5t127.5 99.5q29 37 45 75t24.5 73.5t9.5 68t1 57.5t-3 57.5t-13.5 70.5t-30 77t-51.5 74q-33 35 -70 54.5t-71 28.5t-61.5 11t-43.5 2q-78 0 -146.5 -25.5t-120 -71.5t-81 -109.5t-29.5 -139.5z" />
<glyph unicode="7" horiz-adv-x="1193" d="M129 1004v444h918v-123q-143 -195 -233.5 -366t-146 -330.5t-83 -314t-45.5 -314.5h-136q14 238 74 441.5t139.5 369.5t164.5 295t149 219h-684v-321h-117z" />
<glyph unicode="8" horiz-adv-x="1193" d="M92 406q0 88 33 151.5t77 107.5t92 68.5t79 34.5q4 2 8 2t8 2q-4 2 -8 3t-10 3q-31 12 -70 37t-72.5 64t-57.5 92t-24 123q0 80 30 148.5t88.5 120.5t142.5 82t190 30q111 0 197 -29t145 -78t90 -117.5t31 -148.5q0 -66 -20.5 -121t-54.5 -97t-79 -71t-96 -41 q53 -14 105.5 -47t93.5 -80t66.5 -109.5t25.5 -138.5q0 -80 -31 -156.5t-92 -136t-154.5 -95.5t-220.5 -36q-137 0 -234.5 40t-158.5 102.5t-90 139.5t-29 151zM229 406q0 -68 26 -125.5t74 -100.5t116.5 -66.5t152.5 -23.5q92 0 159.5 25.5t114 67.5t70 97.5t25.5 116.5 q2 82 -31 141.5t-85 97.5t-119.5 56.5t-135.5 18.5q-70 0 -135.5 -18.5t-116.5 -57.5t-83 -95.5t-32 -133.5zM276 1090q0 -53 23 -101.5t66 -85.5t103 -58.5t136 -21.5q80 0 141.5 21.5t102.5 58.5t61.5 87.5t20.5 105.5q0 47 -12.5 81.5t-29 59.5t-31.5 39t-21 18 q-31 25 -65 39.5t-66.5 21.5t-59.5 8t-43 1q-90 0 -152.5 -25.5t-100.5 -65.5t-55.5 -88t-17.5 -95z" />
<glyph unicode="9" horiz-adv-x="1193" d="M82 977q0 98 29.5 187t90 159t150.5 111t211 41q117 0 200 -34t140.5 -90.5t92 -130t53 -152.5t24.5 -159t6 -147q0 -170 -28.5 -314.5t-93 -250t-168 -165t-254.5 -59.5q-20 0 -51 2t-68 9.5t-76 23t-76 41.5q-61 45 -98 104.5t-64 139.5l144 53q2 -25 11 -69t38 -87 t86 -73.5t158 -30.5q121 0 198.5 47t122.5 130t63.5 195.5t24.5 246.5q-39 -78 -95 -123t-114.5 -67.5t-109.5 -29t-80 -6.5q-94 0 -179 32t-148.5 95.5t-101.5 155.5t-38 215zM219 975q0 -106 28.5 -179t78 -118t113 -64.5t130.5 -19.5q94 0 159 28.5t116 79.5 q49 49 71.5 105.5t24.5 128.5q0 53 -16.5 127t-59.5 141.5t-115.5 115.5t-185.5 48q-156 0 -250 -100.5t-94 -292.5z" />
<glyph unicode=":" horiz-adv-x="425" d="M176 0v238h160v-238h-160zM176 721v237h160v-237h-160z" />
<glyph unicode=";" horiz-adv-x="425" d="M174 0v238h162v-164q0 -72 -2 -123t-11.5 -94t-28 -85t-52.5 -96l-68 45q45 70 61.5 128.5t16.5 138.5v12h-78zM176 721v237h160v-237h-160z" />
<glyph unicode="&#x3c;" horiz-adv-x="1366" d="M0 653v144l1366 655v-131l-1229 -596l1229 -600v-131z" />
<glyph unicode="=" horiz-adv-x="1366" d="M0 354v119h1366v-119h-1366zM0 715v121h1366v-121h-1366z" />
<glyph unicode="&#x3e;" horiz-adv-x="1366" d="M0 -6v131l1229 600l-1229 596v131l1366 -655v-144z" />
<glyph unicode="?" horiz-adv-x="980" d="M137 1083q0 102 34 175t89 120t127 69.5t148 22.5q94 0 169.5 -30.5t130 -85t83 -126t28.5 -153.5q0 -76 -18.5 -134t-51 -107.5t-76.5 -92.5t-95 -90t-80 -75.5t-42.5 -54t-16.5 -55.5t-3 -79v-41h-129v70q2 49 6 84t19.5 66.5t47.5 67.5t89 89q41 39 81 77t70.5 81 t49 90t18.5 104q0 41 -14.5 89t-47 89t-88 69t-135.5 28q-78 0 -129 -26t-81.5 -66.5t-44 -90t-13.5 -96.5q0 -23 8.5 -78t42.5 -119l-153 46q-10 47 -16.5 81.5t-6.5 81.5zM422 0v238h160v-238h-160z" />
<glyph unicode="@" horiz-adv-x="1835" d="M141 479q0 190 71 366.5t197 312.5t298 218t374 82q147 0 261 -43t192 -122t119 -187.5t41 -237.5q0 -137 -40 -266t-104.5 -230.5t-148.5 -163t-174 -61.5q-47 0 -78 15.5t-49 38.5q-29 35 -33 69.5t-4 67.5q-18 -27 -36.5 -48.5t-47.5 -49.5q-49 -43 -107.5 -68 t-119.5 -25q-35 0 -79 13.5t-84 50.5t-67.5 101.5t-27.5 164.5q0 111 34.5 215.5t93 185t136.5 129t162 48.5q37 0 70.5 -10.5t62.5 -26.5q53 -35 74.5 -77t37.5 -81l35 148h121l-68 -299q-10 -47 -20 -97.5t-19.5 -97.5t-14.5 -89t-5 -73q0 -37 9 -57.5t21.5 -31.5t25 -14 t18.5 -3q45 0 102 49t108.5 133t86 198.5t34.5 243.5q0 111 -34.5 202t-102 157.5t-165 102.5t-222.5 36q-172 0 -324.5 -71.5t-267 -193.5t-181 -284t-66.5 -344q0 -160 56 -279.5t151.5 -199.5t219 -120t259.5 -40q121 0 225 27.5t191 70.5t158 96.5t122 104.5l55 -65 q-152 -150 -343 -237t-404 -87q-135 0 -275.5 41t-253 129t-184.5 227.5t-72 335.5zM633 483q0 -74 20.5 -119t49 -68.5t59.5 -30.5t51 -7q66 0 126 45t101 113q29 45 44.5 92t24.5 89t11 73t2 41q0 66 -16 110.5t-43 72.5t-60.5 40t-68.5 12q-68 0 -123 -43t-95 -110.5 t-61.5 -149.5t-21.5 -160z" />
<glyph unicode="A" horiz-adv-x="1323" d="M20 0l590 1446h115l575 -1446h-149l-166 436h-647l-164 -436h-154zM383 547h561l-278 737z" />
<glyph unicode="B" horiz-adv-x="1366" d="M166 0v1446h598q41 0 87 -2t92 -11.5t92 -29t85 -53.5q53 -47 83 -115t30 -150q0 -80 -25.5 -135t-62.5 -91t-80 -54.5t-78 -24.5q-4 -2 -12 -2q8 -4 16 -4q135 -31 213 -124t78 -240q0 -57 -15.5 -122t-53 -121t-103.5 -98t-166 -59q-25 -4 -50.5 -6t-63 -3t-94 -1 h-142.5h-428zM303 125h367h110.5t65.5 2q139 6 219 74.5t80 201.5q0 86 -32 141.5t-72 87.5t-76.5 46t-46.5 16q-47 14 -101.5 16.5t-114.5 4.5h-399v-590zM303 834h406q84 0 162.5 8t138.5 57q35 29 58.5 77t23.5 111q0 61 -24 106.5t-60 74.5q-53 41 -125 48t-150 7h-430 v-489z" />
<glyph unicode="C" horiz-adv-x="1366" d="M102 713q0 78 10.5 164t37 172t71.5 164.5t113.5 138t164 95.5t222.5 36q145 0 242.5 -39t160 -96.5t97 -122t59.5 -117.5l-137 -72q-20 90 -64.5 153.5t-89.5 98.5q-37 27 -74.5 42.5t-72.5 22.5t-66 8t-49 1q-117 0 -202 -38t-154 -132q-76 -104 -100.5 -223 t-24.5 -236q0 -37 4 -96t16.5 -126t36 -134.5t64.5 -120.5q43 -57 93 -91t102 -51.5t100.5 -22.5t87.5 -5q53 0 111.5 10t115.5 51q39 27 89 88.5t77 157.5l127 -78q-51 -115 -117 -184.5t-136.5 -106t-143 -49t-140.5 -12.5q-37 0 -93 5t-118.5 24.5t-128 57.5t-123.5 106 q-82 96 -125 241.5t-43 315.5z" />
<glyph unicode="D" horiz-adv-x="1409" d="M166 0v1446h385q117 -2 215 -7t176 -36t144.5 -92.5t114.5 -149.5t76 -197.5t28 -236.5q0 -205 -69 -366.5t-189 -256.5q-49 -39 -100.5 -59t-111 -30.5t-131 -12.5t-163.5 -2h-375zM305 123h217h96.5t102.5 4t98 13.5t84 25.5q53 25 100.5 74t84 119.5t58 161.5 t21.5 200q0 92 -18.5 181t-53 164t-86 132t-116.5 86q-31 12 -61.5 19.5t-69.5 10.5t-88 4t-117 1h-252v-1196z" />
<glyph unicode="E" horiz-adv-x="1236" d="M166 0v1446h944v-127h-807v-514h731v-127h-731v-551h858v-127h-995z" />
<glyph unicode="F" horiz-adv-x="1150" d="M166 0v1446h946v-121h-813v-489h729v-119h-729v-717h-133z" />
<glyph unicode="G" horiz-adv-x="1449" d="M102 711q0 168 42 309t125 244.5t204 161t277 57.5q139 0 233 -41t154.5 -98.5t94.5 -120t52 -107.5l-129 -69q-6 23 -24.5 76t-62.5 107t-117.5 95t-190.5 41q-111 0 -205 -44t-162.5 -127t-106.5 -203t-38 -273q0 -137 30.5 -254t90 -202t149.5 -132t207 -47 q129 0 214 53t133 135t66 178q17 86 17 164v17h-532v125h651v-756h-119v242q-6 -16 -18.5 -44t-35 -60t-57 -63.5t-86.5 -58.5q-102 -53 -241 -53q-150 0 -264.5 57.5t-192.5 159t-118 237.5t-40 294z" />
<glyph unicode="H" horiz-adv-x="1492" d="M166 0v1446h135v-647h889v647h137v-1446h-137v678h-889v-678h-135z" />
<glyph unicode="I" horiz-adv-x="468" d="M166 0v1446h137v-1446h-137z" />
<glyph unicode="J" horiz-adv-x="1024" d="M27 397l145 33q-2 -16 -3 -31.5t-1 -31.5q0 -61 15.5 -112.5t50 -88.5t92 -57.5t141.5 -20.5q94 0 145.5 34t75 84t28.5 111.5t5 116.5q0 27 1 50.5t1 50v58.5v75v778h135v-848v-91t-2 -106.5t-7 -104.5t-13 -81q-27 -92 -79 -143.5t-110.5 -74t-111 -26.5t-76.5 -4 q-25 0 -64 2t-84 13.5t-91 34t-85 61.5q-72 72 -88 153.5t-20 165.5z" />
<glyph unicode="K" horiz-adv-x="1366" d="M166 0v1446h139v-807l787 807h188l-565 -572l614 -874h-168l-540 782l-316 -317v-465h-139z" />
<glyph unicode="L" horiz-adv-x="1150" d="M166 0v1448h139v-1321h799v-127h-938z" />
<glyph unicode="M" horiz-adv-x="1622" d="M166 0v1446h162l489 -1227l467 1227h170v-1446h-133l10 1227l-473 -1227h-94l-481 1227l16 -1227h-133z" />
<glyph unicode="N" horiz-adv-x="1449" d="M166 0v1446h133l862 -1237l-12 1237h135v-1446h-135l-850 1249v-1249h-133z" />
<glyph unicode="O" horiz-adv-x="1449" d="M102 725q0 150 38 287t115 241.5t194.5 167t279.5 62.5q180 0 299 -71t190.5 -181.5t100.5 -242.5t29 -255q0 -82 -13.5 -165t-36 -157.5t-57.5 -141t-78 -117.5q-53 -61 -110.5 -99.5t-114.5 -58t-110.5 -25.5t-98.5 -6q-135 0 -244.5 45t-199.5 152q-78 90 -130.5 231 t-52.5 334zM248 723q0 -100 22.5 -213t76.5 -207t146.5 -155.5t229.5 -61.5q113 0 190.5 40t131 101.5t84 137t47 147.5t20.5 131t4 88q0 98 -21.5 210t-75.5 205t-145.5 155.5t-228.5 62.5t-230 -61.5t-148.5 -155.5t-79 -207t-23.5 -217z" />
<glyph unicode="P" horiz-adv-x="1280" d="M166 0v1446h493q82 0 143.5 -1t107.5 -4t82 -11.5t69 -22.5q86 -41 140 -132t54 -224q0 -33 -8 -88.5t-36.5 -112.5t-83 -107.5t-148.5 -70.5q-27 -6 -50.5 -9.5t-60.5 -5.5t-95 -3t-157 -3h-321v-651h-129zM295 772h309h66q63 0 102 1t64.5 2t42 3t30.5 4q113 18 163 94 t50 177q0 68 -24.5 130t-79.5 101q-25 16 -50.5 25.5t-64.5 14.5t-100.5 6t-157.5 1h-350v-559z" />
<glyph unicode="Q" horiz-adv-x="1449" d="M102 709q0 143 37 282t115 248t198.5 176.5t286.5 67.5q168 0 285 -67.5t189.5 -174t105.5 -240t33 -262.5q0 -123 -27 -254t-96 -247l194 -179l-86 -94l-182 170q-78 -78 -180.5 -125t-245.5 -47q-176 0 -296 68.5t-193.5 177t-105.5 241t-32 259.5zM246 711 q0 -113 25.5 -225.5t83 -204t149.5 -147.5t223 -56q129 0 220 53t149.5 140t86 201t29.5 235q0 98 -20.5 213.5t-74.5 214t-146 164t-236 65.5q-135 0 -228 -60.5t-151.5 -154.5t-84 -210t-25.5 -228z" />
<glyph unicode="R" horiz-adv-x="1323" d="M166 0v1448h405q94 0 157 -1t107 -4t76.5 -9.5t65.5 -18.5q90 -31 140 -85t76 -111.5t32 -108.5t6 -78q0 -113 -38 -179.5t-71 -98.5q-39 -37 -83 -58.5t-87 -33t-82 -15.5t-67 -6l469 -641h-172l-457 641h-340v-641h-137zM303 760h340q72 0 134.5 2t109.5 12 q57 12 97 38t64.5 61.5t36 78.5t11.5 86q0 106 -52.5 180t-158.5 97q-14 4 -28.5 5t-39 2t-65.5 2t-109 1h-340v-565z" />
<glyph unicode="S" horiz-adv-x="1236" d="M100 365l138 71q2 -43 8 -86t26 -82q49 -100 150.5 -143t214.5 -43q104 0 180 26.5t125 69.5t72.5 98.5t23.5 112.5q0 78 -29.5 125t-58.5 70q-25 20 -54.5 35.5t-69.5 29t-92 27.5t-124 33q-76 20 -153.5 46.5t-141 70.5t-102.5 112t-39 168q0 106 43 179t111.5 117 t153.5 62.5t169 18.5q139 0 229.5 -38t145.5 -90t83 -105.5t40 -84.5l-127 -69q-10 29 -23.5 62.5t-37.5 66.5q-53 76 -136.5 110.5t-177.5 34.5q-57 0 -117.5 -13.5t-109.5 -44t-81 -79.5t-32 -121q0 -66 26.5 -110t64.5 -72.5t80 -44t73 -25.5q16 -4 57 -15t88 -23.5 t89 -25t59 -18.5q29 -8 85 -30.5t111.5 -66.5t96.5 -113.5t41 -172.5q0 -76 -33 -152.5t-99.5 -139t-168 -101.5t-240.5 -39q-117 0 -200 25.5t-140 62.5q-84 55 -131 134t-66 180z" />
<glyph unicode="T" horiz-adv-x="1110" d="M31 1325v121h1048v-121h-456v-1325h-138v1325h-454z" />
<glyph unicode="U" horiz-adv-x="1409" d="M164 776v670h135v-860q0 -119 9 -205t61 -154q35 -49 117.5 -93t218.5 -44q39 0 88 5t100 26q84 33 130 88t69 151q10 37 12 92.5t2 96.5v897h137v-658q0 -150 -2 -255t-13 -181t-36 -131t-72 -104q-78 -84 -187.5 -119t-223.5 -35q-184 0 -321.5 78t-190.5 235 q-12 39 -18.5 78t-9.5 93.5t-4 132t-1 196.5z" />
<glyph unicode="V" horiz-adv-x="1236" d="M20 1446h152l442 -1258l457 1258h146l-543 -1446h-123z" />
<glyph unicode="W" horiz-adv-x="1792" d="M20 1446h148l340 -1200l344 1200h94l357 -1200l329 1200h140l-414 -1446h-111l-346 1169l-344 -1169h-108z" />
<glyph unicode="X" horiz-adv-x="1366" d="M43 0l549 778l-473 668h174l393 -584l401 584h166l-475 -668l545 -778h-170l-467 694l-485 -694h-158z" />
<glyph unicode="Y" horiz-adv-x="1280" d="M20 1446h160l447 -719l465 719h165l-565 -848v-598h-133v598z" />
<glyph unicode="Z" horiz-adv-x="1193" d="M59 0v90l893 1231h-839v125h1022v-96l-881 -1227h868v-123h-1063z" />
<glyph unicode="[" horiz-adv-x="555" d="M152 -295v1917h348v-109h-224v-1699h224v-109h-348z" />
<glyph unicode="\" horiz-adv-x="980" d="M20 1446h156l785 -1446h-152z" />
<glyph unicode="]" horiz-adv-x="555" d="M55 -186h224v1699h-224v109h348v-1917h-348v109z" />
<glyph unicode="^" horiz-adv-x="1492" d="M319 717l369 729h129l357 -729h-156l-268 559l-275 -559h-156z" />
<glyph unicode="_" horiz-adv-x="1024" d="M-20 -154h1064v-102h-1064v102z" />
<glyph unicode="`" horiz-adv-x="555" d="M49 1430h227l230 -287h-109z" />
<glyph unicode="a" horiz-adv-x="1024" d="M92 246q0 84 41 139t113.5 93t171 64.5t213.5 53.5l117 27v49q0 27 -4.5 64.5t-26 73.5t-69.5 61.5t-138 25.5t-141.5 -22.5t-76 -57.5t-31.5 -77t-7 -81l-133 23q6 37 17.5 81t39.5 87q53 84 140.5 117.5t187.5 33.5q45 0 98 -7t102.5 -27.5t88.5 -58.5t55 -97 q10 -35 11 -76t1 -112v-316q0 -63 3 -105t16.5 -65.5t43 -32t85.5 -8.5v-96q-55 0 -101.5 4t-81 20.5t-55 49t-24.5 88.5v18q-4 -8 -9 -20q-43 -90 -138 -135t-202 -45q-90 0 -149.5 27.5t-94 67.5t-49 86t-14.5 85zM211 248q0 -29 11 -57.5t35 -52t60.5 -38t88.5 -14.5 q70 0 141 29.5t119 77.5q57 57 68 117.5t14 133.5v72l-62 -14q-51 -14 -88 -23.5t-64.5 -17.5t-49 -13.5t-40.5 -11.5q-41 -12 -83 -25.5t-75.5 -35t-54 -52t-20.5 -75.5z" />
<glyph unicode="b" d="M156 0v1446h116v-637q29 55 64 92t75 58.5t80.5 29.5t79.5 8q98 0 174 -42t127.5 -114.5t78 -167.5t26.5 -202q0 -84 -19.5 -172t-66.5 -159.5t-123 -117t-190 -45.5q-80 0 -135.5 25t-90.5 56.5t-53 64.5t-27 51v-174h-116zM272 494q0 -201 75 -304.5t214 -103.5 q86 0 141.5 34t87 89t45 123.5t13.5 136.5v18q0 181 -76 289q-80 114 -219 113q-61 0 -123 -29q-47 -25 -77.5 -64.5t-48 -89t-25 -103.5t-7.5 -109z" />
<glyph unicode="c" horiz-adv-x="980" d="M90 481q0 123 35 219.5t97.5 163t148.5 101t186 34.5q102 0 171 -30.5t112 -72.5t63.5 -83t26.5 -59l-113 -27q-20 47 -51 79t-67.5 50t-74.5 26.5t-71 8.5q-70 0 -131.5 -26.5t-105.5 -78t-69.5 -127t-25.5 -172.5q0 -57 13.5 -127.5t48 -132t97 -103.5t163.5 -42 q76 0 145.5 35t116.5 129l125 -29q-16 -35 -30.5 -58.5t-45.5 -58.5q-12 -12 -35.5 -33.5t-60.5 -42t-91.5 -35t-127.5 -14.5q-119 0 -204 44t-139.5 115t-80 162t-25.5 185z" />
<glyph unicode="d" d="M90 489q0 119 33 213.5t90 160t134 100t165 34.5q111 0 184.5 -53t96.5 -125v627h118v-1446h-118v176q-29 -86 -109 -142.5t-190 -56.5q-86 0 -160 36t-128 102.5t-85 162t-31 211.5zM221 489q0 -55 11.5 -123.5t42 -130t88 -102.5t149.5 -41q70 0 118 22.5t79.5 58.5 t49 79t26 86t10.5 80.5t2 60.5v23q1 88 -13 155q-16 76 -51 125q-29 39 -83 72t-134 33q-72 0 -127 -31t-92 -84t-56.5 -126t-19.5 -157z" />
<glyph unicode="e" d="M90 496q0 121 37 215t99.5 158.5t144.5 97t170 32.5q111 0 194.5 -44t139 -116.5t83.5 -163.5q24 -79 24 -163q0 -12 -1 -25h-758q-1 -11 -1 -23q0 -31 4 -69q5 -53 28 -110q29 -76 74 -117t90 -59.5t84 -21.5t53 -3q41 0 83 8t83 30.5t79 62.5t68 104l113 -31 q-10 -27 -31.5 -65.5t-60.5 -81.5q-10 -12 -35 -35t-64.5 -45.5t-97 -39t-137.5 -16.5q-121 0 -209 43t-144.5 115t-84 166t-27.5 197zM225 586h619q-8 66 -30.5 125t-72.5 106q-31 29 -81 51.5t-121 22.5q-127 0 -212 -82t-102 -223z" />
<glyph unicode="f" horiz-adv-x="641" d="M47 874v103h215v186q0 55 1 87t2 51.5t4 30.5t7 24q41 119 203 119q35 0 65.5 -5.5t59.5 -9.5v-119q-23 10 -47.5 17.5t-67.5 7.5q-16 0 -45.5 -7t-48.5 -48q-4 -8 -6 -16.5t-3 -23t-2 -37t-1 -60.5v-197h221v-103h-221v-874h-121v874h-215z" />
<glyph unicode="g" horiz-adv-x="1110" d="M90 496q0 123 33 217t90 157.5t135 96t168 32.5q129 0 213 -61t109 -141v180h116v-873q0 -94 -1 -168.5t-10 -133t-29.5 -104.5t-57.5 -83q-47 -49 -133 -82t-205 -33q-25 0 -59.5 2t-73.5 11.5t-80 27t-78 45.5q-39 31 -63.5 65t-37.5 67.5t-19.5 67.5t-8.5 62l125 25 q6 -39 18.5 -86t44 -87t90 -66.5t156.5 -26.5q139 0 207 55t86 160q4 18 5 61t3.5 92.5t3.5 94.5t1 69v49q-8 -27 -18.5 -50t-39.5 -54q-53 -59 -124.5 -81.5t-141.5 -22.5q-104 0 -184 40.5t-133.5 111.5t-80 164t-26.5 200zM213 498q0 -104 24.5 -185.5t65.5 -130.5 q27 -33 57.5 -51t59.5 -27.5t56.5 -12.5t47.5 -3q113 0 174.5 45t91 108.5t37 129t7.5 108.5q0 55 -7.5 128t-37 136.5t-90 107.5t-167.5 44q-66 0 -126 -24.5t-103 -73.5q-35 -41 -62.5 -113t-27.5 -186z" />
<glyph unicode="h" d="M154 0v1446h120v-625q45 92 128 134t176 42q111 0 190.5 -49t114.5 -135q20 -53 23 -117.5t5 -144.5v-551h-120v530v34t-1.5 49.5t-2.5 47t-1 23.5q-4 43 -17 80t-40 64.5t-67.5 43t-100.5 15.5q-41 0 -83 -10.5t-79 -35t-66.5 -66.5t-43.5 -103q-10 -45 -12.5 -98.5 t-2.5 -151.5v-422h-120z" />
<glyph unicode="i" horiz-adv-x="425" d="M154 0v977h118v-977h-118zM154 1206v187h118v-187h-118z" />
<glyph unicode="j" horiz-adv-x="425" d="M-98 -369q59 -37 104 -43t55 -6q31 0 52.5 11.5t29.5 39.5q4 8 5.5 18.5t2.5 41.5t2 92t1 174v178v840h118v-858v-97.5v-130t-1 -128t-3 -87.5q-2 -23 -7 -56.5t-23.5 -66t-57.5 -55t-106 -22.5q-90 0 -172 41v114zM154 1206v187h118v-187h-118z" />
<glyph unicode="k" horiz-adv-x="1024" d="M154 0v1446h118v-983l549 514h152l-408 -389l436 -588h-147l-373 506l-209 -199v-307h-118z" />
<glyph unicode="l" horiz-adv-x="425" d="M154 0v1446h120v-1446h-120z" />
<glyph unicode="m" horiz-adv-x="1579" d="M154 0v975h120v-201q20 84 62.5 129t88.5 65.5t85 24.5t53 4q41 0 87 -11t85 -38.5t65.5 -75t33.5 -118.5q4 20 15 51t34 65q47 70 114.5 98.5t139.5 28.5q88 0 141 -28.5t82 -63.5q23 -31 35 -66.5t18 -84.5t8 -116t2 -157v-481h-120v528q0 68 -1.5 115t-4.5 79 t-10 54.5t-19 40.5q-25 37 -66 53.5t-86 16.5q-72 0 -120 -31t-76.5 -69.5t-41 -76.5t-16.5 -55q-10 -43 -12 -97t-2 -152v-406h-119v541q-2 78 -3 114.5t-5 69.5q-2 12 -8 39t-24.5 54.5t-54.5 48t-95 20.5q-63 0 -121 -32t-94 -99q-18 -33 -28.5 -70t-15 -80t-5.5 -96 t-1 -119v-391h-120z" />
<glyph unicode="n" d="M154 0v975h120v-174q12 37 37 72.5t63 63.5t89 44t117 16q20 0 52 -3t68.5 -14t75.5 -34.5t70 -64.5q25 -31 38 -64t19 -76t7 -99t1 -136v-506h-120v506q0 72 -1.5 120t-4.5 80.5t-10 55t-21 43.5q-18 27 -63.5 55.5t-127.5 28.5q-84 0 -136 -30t-91 -81 q-23 -31 -35 -60.5t-18.5 -68.5t-7.5 -91t-1 -130v-428h-120z" />
<glyph unicode="o" d="M90 475q0 96 25.5 189.5t79 168t137.5 120.5t203 46q117 0 199.5 -44t137 -114.5t80 -161.5t25.5 -185q0 -111 -31 -206t-88 -165t-140 -109t-188 -39q-106 0 -188 40t-138.5 107.5t-85 159t-28.5 193.5zM219 473q0 -104 24.5 -178t67.5 -122t99.5 -69.5t119.5 -21.5 q80 0 139.5 29.5t99.5 83t59.5 126t19.5 158.5q0 14 -1 50t-9.5 83t-26.5 97.5t-53 92.5t-88.5 68.5t-132.5 26.5q-66 0 -125.5 -25.5t-100.5 -74.5q-31 -37 -49 -81t-27.5 -88t-12.5 -84t-3 -71z" />
<glyph unicode="p" d="M156 -518v1495h118v-160q10 25 21.5 44.5t38.5 45.5q47 47 108.5 68.5t126.5 21.5q119 0 198 -51t125 -128t65.5 -167t19.5 -166q0 -98 -26.5 -190t-78 -163t-127 -113t-174.5 -42q-94 0 -175 43t-122 142v-680h-118zM274 400q2 -48 15 -95q16 -59 42.5 -100t61.5 -65.5 t75 -36t81 -11.5q90 0 148.5 41t92 102.5t48 132t14.5 132.5q0 80 -18.5 149.5t-55.5 122.5t-94 84t-135 31q-98 0 -153.5 -47t-82 -111.5t-33 -128t-6.5 -98.5q-1 -26 -1 -51.5t1 -50.5z" />
<glyph unicode="q" horiz-adv-x="1024" d="M90 494q0 59 8 116.5t27 110.5q31 88 79 142.5t102 84t105.5 39.5t88.5 10q27 0 67.5 -6t83.5 -24.5t82 -53t62 -92.5v154h116v-1493h-116v688q-39 -96 -118 -144.5t-183 -48.5q-94 0 -169 41t-127.5 112t-80 164t-27.5 200zM215 500q0 -82 20.5 -157t58.5 -131t95 -89 t131 -33q72 0 124 30t87 79q23 33 35 70.5t19.5 75.5t9.5 73.5t2 66.5t-1 69t-8.5 78t-21.5 80t-39 72q-8 12 -24.5 29.5t-42 33t-61.5 27t-83 11.5q-74 0 -130 -29t-94 -81t-57.5 -121.5t-19.5 -153.5z" />
<glyph unicode="r" horiz-adv-x="641" d="M156 0v977h118v-156q47 98 120 135t165 37q23 0 36 -1t32 -5v-108q-29 4 -39 5t-35 1q-12 0 -34.5 -1t-50.5 -9.5t-58.5 -23.5t-57.5 -44q-29 -31 -44 -66.5t-22 -82t-9.5 -103.5t-2.5 -133v-422h-118z" />
<glyph unicode="s" horiz-adv-x="937" d="M70 238l118 41q8 -33 29 -68t54.5 -62.5t80.5 -46t111 -18.5q127 0 187.5 57.5t60.5 134.5q0 47 -21.5 78t-53.5 50.5t-68 29.5t-66 17q-29 6 -58.5 12t-58.5 12q-33 8 -77 21.5t-84 41t-66.5 72.5t-26.5 117q0 37 13.5 85t52.5 89t106.5 69.5t177.5 28.5q72 0 129.5 -15 t98.5 -40q33 -20 54 -43.5t35.5 -47.5t21.5 -43t9 -32l-116 -28q-4 20 -19.5 50.5t-64.5 59.5q-31 18 -71 26.5t-83 8.5q-27 0 -65.5 -5t-74.5 -22.5t-60.5 -49.5t-24.5 -87q0 -39 16.5 -65.5t45 -44t65.5 -27.5t78 -21l102 -22q47 -12 103.5 -32.5t103.5 -72.5 q65 -71 65 -169q0 -56 -21.5 -109t-66.5 -96t-113.5 -70t-164.5 -27q-94 0 -154.5 24t-91.5 46q-53 35 -87 82t-60 111z" />
<glyph unicode="t" horiz-adv-x="598" d="M31 874v103h205v416h116v-416h215v-103h-215v-667q0 -70 22.5 -94.5t57.5 -24.5q33 0 68 18.5t67 43.5v-121q-70 -47 -155 -47q-66 0 -102 18t-52 54t-19 89.5t-3 122.5v608h-205z" />
<glyph unicode="u" d="M154 498v479h120v-506q0 -80 4.5 -149.5t25 -122t65.5 -82t127 -29.5q41 0 97 13.5t109 68.5q33 35 50.5 72t25.5 82t10.5 100t2.5 123v430h120v-977h-120v176q-6 -16 -17.5 -38.5t-32.5 -49.5q-57 -70 -128.5 -90.5t-131.5 -20.5q-70 0 -121 19.5t-86.5 47.5t-55 59.5 t-30.5 54.5q-25 57 -29.5 137t-4.5 203z" />
<glyph unicode="v" horiz-adv-x="854" d="M20 977h121l271 -795l301 795h118l-374 -977h-99z" />
<glyph unicode="w" horiz-adv-x="1409" d="M43 977h117l262 -789l240 789h102l242 -789l241 789h119l-309 -977h-103l-239 805l-240 -805h-102z" />
<glyph unicode="x" horiz-adv-x="937" d="M43 0l358 508l-329 469h141l256 -373l264 373h129l-327 -469l360 -508h-139l-287 416l-295 -416h-131z" />
<glyph unicode="y" horiz-adv-x="894" d="M20 -332q43 -31 76 -40t51 -9q45 0 70 25.5t51 91.5q4 6 11.5 23.5t14.5 38t15 38t10 23.5l52 141l-338 977h117l284 -832l318 832h122l-440 -1118q-27 -68 -44 -109t-27.5 -65.5t-16.5 -39t-14 -28.5q-35 -57 -75 -84t-105 -27q-51 0 -83 14.5t-49 24.5v123z" />
<glyph unicode="z" horiz-adv-x="811" d="M57 0v76l529 796h-484v105h654v-72l-529 -796h543v-109h-713z" />
<glyph unicode="{" horiz-adv-x="724" d="M176 631v67q35 10 63.5 26.5t51.5 68.5q8 18 12 38.5t7 48t4 63.5t1 87v178q0 96 7.5 168t39.5 125q25 43 53.5 68.5t62.5 38t73 17.5t86 9v-69q-72 -18 -111 -46t-58 -69t-23.5 -96.5t-4.5 -128.5v-95q0 -125 -4 -205.5t-20.5 -133t-49 -81t-90.5 -48.5q33 -10 61 -25.5 t56 -54.5q18 -25 27.5 -53.5t14.5 -68.5t6 -98.5t1 -142.5v-117q0 -74 5.5 -129t25 -95t58 -67.5t106.5 -48.5v-69q-88 8 -145.5 22.5t-104.5 67.5q-51 59 -59.5 133t-10.5 174v186q0 102 -3 153.5t-19 90.5q-23 57 -53.5 76.5t-65.5 34.5z" />
<glyph unicode="|" horiz-adv-x="468" d="M174 -512v2048h121v-2048h-121z" />
<glyph unicode="}" horiz-adv-x="724" d="M88 -238q72 18 111 46t58 69t23.5 96.5t4.5 128.5v95q0 125 4 205.5t20.5 133t49 81t90.5 49.5q-33 10 -61 25.5t-56 53.5q-18 25 -27.5 53.5t-13.5 68.5t-6 98.5t-2 142.5v117q0 74 -5.5 129t-25 95t-58 67.5t-106.5 48.5v69q90 -8 146.5 -22.5t103.5 -67.5 q51 -59 59.5 -133t10.5 -174v-186q0 -102 3 -153.5t19 -90.5q23 -57 53.5 -76.5t65.5 -34.5v-67q-35 -10 -63.5 -26.5t-51.5 -67.5q-8 -18 -12 -39t-7 -48.5t-4 -63.5t-1 -87v-178q0 -96 -7.5 -168t-40.5 -125q-25 -43 -53 -68.5t-62 -38t-73 -17.5t-86 -9v69z" />
<glyph unicode="~" horiz-adv-x="1492" d="M274 580q12 18 33 46.5t51.5 54.5t72.5 44t95 18q59 0 115.5 -21.5t116.5 -49.5l65 -31q51 -23 78 -32t55 -9q35 0 65 12.5t54.5 32t44 42t35.5 42.5l64 -113q-51 -66 -114 -111.5t-149 -45.5q-45 0 -87 14t-111 49l-60 29q-33 16 -78 33.5t-92 17.5q-31 0 -52 -7 t-41.5 -23.5t-42 -41t-50.5 -61.5z" />
<glyph unicode="&#xa1;" horiz-adv-x="425" d="M96 1221v237h156v-237h-156zM106 0v829l19 269h96l19 -269v-829h-134z" />
<glyph unicode="&#xa2;" horiz-adv-x="980" d="M90 481q0 119 33 211t88 156.5t128 101.5t153 47v191h102v-189q53 -4 98 -15t88 -40q14 -8 34 -23.5t41.5 -39t42 -54t34.5 -71.5l-115 -27q-20 51 -51 82t-63.5 47t-61.5 23.5t-47 9.5v-805q14 2 39.5 8t55.5 23.5t61.5 47.5t56.5 81l125 -27q-47 -98 -124 -161.5 t-214 -77.5v-211h-102v211q-117 12 -194 62t-123 123t-65.5 157t-19.5 159zM221 489q0 -96 26.5 -183t80.5 -140q35 -35 73.5 -52.5t90.5 -27.5v801q-84 -18 -136.5 -62.5t-82 -100.5t-41 -118.5t-11.5 -116.5z" />
<glyph unicode="&#xa3;" horiz-adv-x="1236" d="M86 154q0 66 51 110.5t150 44.5q37 0 102.5 -11t122.5 -46q25 51 32 90t7 59q0 35 -9.5 64t-22.5 51.5t-27.5 37.5t-22.5 24h-270v106h190q-33 25 -60.5 53.5t-58.5 63.5q-18 23 -39.5 50.5t-41 61t-32 74.5t-12.5 90q0 78 34 145.5t95.5 117t145.5 78t182 28.5 q111 0 198 -32t142 -81q37 -31 59.5 -66.5t37 -71.5t21.5 -70.5t9 -65.5l-135 -29q-2 51 -17.5 105.5t-64.5 101.5q-96 86 -252 86q-63 0 -120.5 -16.5t-100.5 -48t-68.5 -76.5t-25.5 -103q0 -18 10 -66t72 -124q10 -12 38.5 -41t61.5 -60.5t61.5 -61.5t40.5 -42h310v-106 h-246q16 -29 34.5 -73t18.5 -110q0 -47 -12 -93t-41 -87q25 -14 59.5 -32.5t72.5 -34t72.5 -25.5t55.5 -10q47 0 72.5 22.5t38 60t15.5 87t3 102.5l135 -14q-2 -51 -9 -117t-35 -123t-81 -97t-147 -40q-84 0 -157 31.5t-159 78.5q-102 -113 -266 -112q-41 0 -82 9t-76 34 q-59 47 -59 119zM193 150q0 -16 20 -37t76 -21q78 0 122 23t60 37q-41 29 -89 41t-97 12q-6 0 -21.5 -1t-31 -6t-27.5 -16.5t-12 -31.5z" />
<glyph unicode="&#xa4;" horiz-adv-x="1366" d="M119 223l151 150q-20 33 -40.5 64.5t-37 69.5t-25.5 84t-9 105q0 63 12 114.5t29.5 90.5t37 67.5t33.5 47.5l-149 149l92 92l149 -149q27 18 58 38.5t69.5 37t87 27t109.5 10.5t111.5 -11.5t89.5 -29t68.5 -36t50.5 -34.5l149 150l94 -95l-151 -149q14 -18 33.5 -47 t36 -68t28.5 -90t12 -119q0 -63 -12 -115.5t-30.5 -92.5t-38 -67.5t-31.5 -43.5l151 -154l-94 -92l-149 154q-31 -20 -62 -41t-67.5 -36.5t-84 -24.5t-108.5 -9q-59 0 -105.5 9t-83 24.5t-68.5 35t-63 42.5l-151 -150zM283 694q0 -84 30.5 -157.5t84 -128t128 -86 t160.5 -31.5q82 0 154.5 29.5t126 84t85 129t31.5 162.5q0 92 -32.5 167t-88 127t-127 81t-147.5 29q-80 0 -153.5 -29t-130 -81t-89 -128t-32.5 -168z" />
<glyph unicode="&#xa5;" horiz-adv-x="1280" d="M20 1446h160l449 -713l463 713h165l-417 -629h295v-108h-369l-76 -121h445v-109h-443v-479h-133v479h-416v109l418 4l-72 117h-346v108h277z" />
<glyph unicode="&#xa6;" horiz-adv-x="468" d="M174 358h121v-716h-121v716zM174 666v716h121v-716h-121z" />
<glyph unicode="&#xa7;" d="M78 33l96 94q10 -10 43 -38t82 -56.5t112.5 -50t135.5 -21.5q63 0 108 16.5t75 44t43 61.5t13 69q0 37 -13 64.5t-43 50t-78 47t-117 55.5q-102 47 -183.5 88t-136.5 86t-84 99t-29 128q0 43 13.5 90t43 90t73.5 79t106 58q-20 12 -46 32t-47.5 46.5t-35.5 64.5t-14 87 q0 51 20.5 102t61 92t101 67t140.5 26q72 0 130.5 -18.5t106.5 -46.5t85 -58.5t63 -53.5l-94 -92q-12 12 -40 37t-66.5 48.5t-88 41t-104.5 17.5q-90 0 -135 -46.5t-45 -111.5q0 -37 14 -64.5t45 -51t79 -47t116 -52.5q92 -39 163.5 -75t121 -79t76 -96t26.5 -129 q0 -98 -55.5 -185t-159.5 -134q18 -10 46.5 -28t55.5 -47.5t45.5 -73.5t18.5 -105q0 -63 -26 -122t-75 -104t-118.5 -70.5t-159.5 -25.5q-80 0 -148.5 17.5t-127 46t-105.5 64.5t-84 73zM236 772q0 -43 16 -70.5t51 -56.5q45 -35 127 -77t174 -83l55 -20q18 12 48 35.5 t60 56.5t51.5 75t21.5 87q0 47 -17.5 78.5t-36.5 52.5q-14 14 -34.5 27.5t-41 23.5t-39 19.5t-28.5 13.5q-20 10 -50 24.5t-58.5 27.5t-53 23.5t-39.5 12.5q-90 -41 -148 -106.5t-58 -143.5z" />
<glyph unicode="&#xa8;" horiz-adv-x="555" d="M39 1192v188h125v-188h-125zM391 1192v188h125v-188h-125z" />
<glyph unicode="&#xa9;" horiz-adv-x="1705" d="M125 721q0 154 57.5 288t155.5 232t231 154.5t287 56.5q152 0 285 -55.5t231 -153.5t154.5 -232t56.5 -292q0 -111 -31.5 -213.5t-85.5 -186.5q-43 -68 -106.5 -127t-142 -103t-171 -69.5t-194.5 -25.5q-141 0 -273.5 53t-232.5 149.5t-160.5 229.5t-60.5 295zM190 719 q0 -135 51.5 -255t140.5 -210t211 -142.5t263 -52.5q131 0 250 48.5t210 135.5t145.5 208t56.5 268q0 135 -48.5 256t-136.5 212t-210 145t-267 54q-137 0 -259 -51t-212 -141t-142.5 -212t-52.5 -263zM395 725q0 98 36 184t98.5 150.5t149.5 102.5t191 38q84 0 147.5 -22.5 t110 -54t77 -63.5t44.5 -50l-86 -78q-18 20 -43.5 47t-61.5 50.5t-81 39.5t-105 16q-74 0 -139 -27.5t-114.5 -74.5t-77 -112.5t-27.5 -141.5q0 -82 29.5 -149.5t80 -114.5t115 -72.5t133.5 -25.5q61 0 108.5 17t83.5 42t60.5 50.5t38.5 41.5l86 -74q-18 -23 -50 -57.5 t-89 -67.5q-41 -25 -102.5 -46t-143.5 -21q-90 0 -175 32.5t-150.5 94t-104.5 148.5t-39 198z" />
<glyph unicode="&#xaa;" horiz-adv-x="641" d="M53 991q0 55 26.5 91t72 60.5t108 41t131.5 33.5l62 14v20q0 16 -2 38t-14.5 42.5t-40 33.5t-79.5 13q-51 0 -79.5 -13t-43 -33.5t-17.5 -47.5t-3 -51l-104 16q4 25 13 61t34.5 70.5t73 59t126.5 24.5q66 0 113 -17t72 -46q33 -35 38 -75t5 -105v-191q0 -41 2 -64.5 t10 -35.5t26.5 -15.5t51.5 -3.5v-80h-21q-70 0 -104.5 14.5t-50.5 55.5l-2 14l-4 -6q-43 -57 -100.5 -73.5t-100.5 -16.5q-57 0 -95 17.5t-61.5 43t-33 56.5t-9.5 55zM147 993q0 -35 27 -61.5t82 -26.5q41 0 82 17.5t70 46.5q31 31 38 65.5t7 77.5v31l-23 -6 q-78 -20 -131 -35t-86 -27q-14 -6 -40 -23.5t-26 -58.5z" />
<glyph unicode="&#xab;" horiz-adv-x="768" d="M78 633l241 379l99 -60l-203 -319l203 -289l-99 -63zM354 633l244 379l96 -60l-202 -319l202 -289l-96 -63z" />
<glyph unicode="&#xac;" horiz-adv-x="1366" d="M0 537v120h1243h123v-657h-123v537h-1243z" />
<glyph unicode="&#xad;" horiz-adv-x="724" d="M78 600v133h571v-133h-571z" />
<glyph unicode="&#xae;" horiz-adv-x="1705" d="M123 723q0 158 58.5 291t158.5 230t232.5 152.5t279.5 55.5q158 0 292 -58.5t232.5 -158.5t152.5 -233t54 -283q0 -152 -57.5 -284t-155.5 -230.5t-231 -154.5t-289 -56q-141 0 -273.5 53t-232.5 149.5t-160.5 230.5t-60.5 296zM188 723q0 -139 52.5 -261t142.5 -211 t211 -140.5t258 -51.5q141 0 262 51.5t210 141.5t141.5 211t52.5 258t-49.5 258t-138.5 212t-211 143t-263 52t-263 -52t-212 -142t-141.5 -211t-51.5 -258zM559 270v912h281q80 0 126 -2t87 -19q70 -29 104.5 -85t34.5 -122q0 -96 -59.5 -150t-145.5 -69q74 -29 103.5 -73 t44.5 -127q8 -49 13 -86t12 -66t17.5 -55.5t24.5 -57.5h-153q-16 31 -23.5 61.5t-13.5 63.5q-2 8 -5 28.5t-6.5 43t-6.5 44t-5 30.5q-10 51 -28.5 80.5t-47 46t-67.5 21.5t-88 5h-66v-424h-133zM694 801h154q23 0 57.5 2t68.5 15t58.5 42t24.5 84q0 63 -43 100 q-14 12 -30.5 19.5t-39 10.5t-53.5 4t-72 1h-125v-278z" />
<glyph unicode="&#xaf;" horiz-adv-x="555" d="M39 1192v129h477v-129h-477z" />
<glyph unicode="&#xb0;" horiz-adv-x="724" d="M61 1231q0 61 24 116.5t64.5 96.5t96 64.5t116.5 23.5t117 -23.5t96.5 -64.5t64.5 -96.5t24 -116.5t-24 -116.5t-64.5 -96.5t-96 -64.5t-117.5 -23.5q-61 0 -116.5 23.5t-96 64.5t-64.5 96.5t-24 116.5zM184 1231q0 -74 52.5 -126t125.5 -52q74 0 126.5 52t52.5 126 t-52.5 126t-126.5 52t-126 -52t-52 -126z" />
<glyph unicode="&#xb1;" horiz-adv-x="1366" d="M82 0v121h1200v-121h-1200zM82 776v121h543v524h120v-524h537v-121h-537v-524h-120v524h-543z" />
<glyph unicode="&#xb2;" horiz-adv-x="768" d="M82 1196q0 63 22.5 112.5t62.5 84t95 53t119 18.5q78 0 136 -23.5t97 -63.5t58.5 -93t19.5 -113q0 -82 -38 -154.5t-99 -139t-141 -127t-164 -117.5h414v-90h-580v86q49 31 117.5 78t163.5 124q43 35 82.5 72t70.5 78t50.5 89t19.5 106q0 102 -61.5 151t-147.5 49 q-53 0 -91 -17.5t-62.5 -45t-37 -61t-12.5 -64.5q0 -57 26.5 -98t49.5 -66l-135 16q-8 18 -21.5 59.5t-13.5 96.5z" />
<glyph unicode="&#xb3;" horiz-adv-x="768" d="M61 813l107 37q0 -18 2 -57t21.5 -77t62.5 -68t125 -30q88 0 144.5 42t56.5 133q0 45 -14.5 77.5t-35.5 51.5q-35 33 -76.5 39t-95.5 6h-133v90h117q29 0 66.5 2t72.5 16.5t59.5 46t24.5 88.5q0 70 -48 118t-136 48q-37 0 -73 -11t-62.5 -35.5t-43 -62.5t-14.5 -89 l-112 28q6 29 21.5 73t48 85t89 70.5t146.5 29.5q57 0 108.5 -15t90 -47t62.5 -80t24 -114q0 -57 -16.5 -93t-39 -56.5t-46 -29.5t-38.5 -13l15 -4q12 -4 35.5 -15.5t47 -35t42 -62.5t18.5 -98q0 -119 -81 -197t-224 -78q-78 0 -157 33t-124 119q-20 37 -26 68.5t-11 66.5z " />
<glyph unicode="&#xb4;" horiz-adv-x="555" d="M49 1143l230 287h227l-348 -287h-109z" />
<glyph unicode="&#xb6;" horiz-adv-x="1366" d="M184 1049q0 66 19.5 129t60.5 116q43 53 91 84t97.5 45.5t96.5 18.5t86 4h455v-90h-70v-1698h-94v1698h-322v-1698h-94v1018q-49 8 -109.5 26.5t-119.5 81.5q-49 53 -73 123t-24 142z" />
<glyph unicode="&#xb7;" horiz-adv-x="342" d="M90 549v237h162v-237h-162z" />
<glyph unicode="&#xb8;" horiz-adv-x="555" d="M135 -145l84 145h49l-49 -96q16 4 28.5 5t28.5 1q63 0 103.5 -36t40.5 -95q0 -78 -61.5 -123t-145.5 -45q-10 0 -24.5 1t-53.5 5v55q18 -2 33.5 -3t32.5 -1q43 0 65.5 11.5t33.5 25.5t13 27.5t2 15.5q0 33 -26.5 55.5t-73.5 22.5q-27 0 -45 -7t-35 -14v50z" />
<glyph unicode="&#xb9;" horiz-adv-x="768" d="M209 1225v88q61 0 94 12t47.5 32.5t16.5 44t2 46.5h98v-905h-98v706l-9 -4q-23 -10 -54.5 -17t-96.5 -3z" />
<glyph unicode="&#xba;" horiz-adv-x="681" d="M61 1135q0 59 16.5 118.5t50.5 106.5t87 75.5t127 28.5t126 -27.5t86 -71.5t51.5 -101.5t17.5 -118.5q0 -70 -19.5 -130.5t-56.5 -104.5t-89 -68.5t-118 -24.5t-118 24.5t-88 66.5t-54.5 100.5t-18.5 126.5zM162 1133q0 -98 43 -164t135 -66q49 0 83 18.5t55.5 50.5 t32.5 75t11 90q0 12 -2 52t-19.5 82t-53 75.5t-103.5 33.5q-98 0 -140 -71.5t-42 -175.5z" />
<glyph unicode="&#xbb;" horiz-adv-x="768" d="M74 342l202 317l-202 289l96 64l242 -353l-242 -378zM350 342l203 317l-203 289l99 64l241 -353l-241 -378z" />
<glyph unicode="&#xbc;" horiz-adv-x="1792" d="M209 1225v88q61 0 94 12t47.5 32.5t16.5 44t2 46.5h98v-905h-98v706l-9 -4q-23 -10 -54.5 -17t-96.5 -3zM500 -43l721 1577l84 -39l-723 -1577zM1102 221v78l391 606h100v-594h138v-90h-138v-221h-98v221h-393zM1219 311h276v422z" />
<glyph unicode="&#xbd;" horiz-adv-x="1792" d="M211 1225v88q61 0 94 12t47.5 32.5t16.5 44t2 46.5h98v-905h-98v706l-9 -4q-23 -10 -54.5 -17t-96.5 -3zM455 -43l721 1577l84 -39l-723 -1575zM1108 653q0 63 22.5 112.5t62.5 84.5t95 53.5t119 18.5q78 0 136.5 -24t96 -63.5t57 -93t19.5 -112.5q0 -82 -38 -155 t-99 -139.5t-140 -127t-163 -117.5h412v-90h-578v86q49 31 116.5 78t164.5 125q41 35 80.5 71.5t70.5 77.5t50.5 89t19.5 106q0 102 -60.5 151.5t-146.5 49.5q-53 0 -91 -17.5t-62.5 -45.5t-37 -61.5t-12.5 -64.5q0 -57 26.5 -98t49.5 -66l-135 17q-8 18 -21.5 59t-13.5 96z " />
<glyph unicode="&#xbe;" horiz-adv-x="1792" d="M61 813l107 37q0 -18 2 -57t21.5 -77t62.5 -68t125 -30q88 0 144.5 42t56.5 133q0 45 -14.5 77.5t-35.5 51.5q-35 33 -76.5 39t-95.5 6h-133v90h117q29 0 66.5 2t72.5 16.5t59.5 46t24.5 88.5q0 70 -48 118t-136 48q-37 0 -73 -11t-62.5 -35.5t-43 -62.5t-14.5 -89 l-112 28q6 29 21.5 73t48 85t89 70.5t146.5 29.5q57 0 108.5 -15t90 -47t62.5 -80t24 -114q0 -57 -16.5 -93t-39 -56.5t-46 -29.5t-38.5 -13l15 -4q12 -4 35.5 -15.5t47 -35t42 -62.5t18.5 -98q0 -119 -81 -197t-224 -78q-78 0 -157 33t-124 119q-20 37 -26 68.5t-11 66.5z M571 -43l721 1579l84 -41l-721 -1577zM1102 221v78l391 606h100v-594h138v-90h-138v-221h-98v221h-393zM1219 311h276v422z" />
<glyph unicode="&#xbf;" horiz-adv-x="980" d="M35 369q0 78 18.5 136t51 107.5t76.5 92.5t95 90t80 75.5t42.5 54t16.5 55.5t3 79v41h129v-70q-2 -51 -6 -85t-19.5 -65.5t-47.5 -67.5t-89 -89q-41 -39 -81 -77t-70.5 -81t-49 -90t-18.5 -104q0 -41 14.5 -89.5t47 -89t87 -68.5t134.5 -28q78 0 130 25.5t82.5 66.5 t44 90.5t13.5 96.5q0 23 -8.5 78t-42.5 118l153 -45q10 -47 16.5 -81.5t6.5 -82.5q0 -100 -33 -173.5t-88 -121t-127 -70t-150 -22.5q-94 0 -169.5 31t-130 84t-83 125t-28.5 154zM399 1208v238h160v-238h-160z" />
<glyph unicode="&#xc0;" horiz-adv-x="1323" d="M20 0l590 1446h115l575 -1446h-149l-166 436h-647l-164 -436h-154zM328 1833h217l203 -256h-119zM383 547h561l-278 737z" />
<glyph unicode="&#xc1;" horiz-adv-x="1323" d="M20 0l590 1446h115l575 -1446h-149l-166 436h-647l-164 -436h-154zM383 547h561l-278 737zM571 1577l201 256h217l-301 -256h-117z" />
<glyph unicode="&#xc2;" horiz-adv-x="1323" d="M20 0l590 1446h115l575 -1446h-149l-166 436h-647l-164 -436h-154zM383 547h561l-278 737zM410 1581l215 252h86l213 -252h-101l-159 115l-158 -115h-96z" />
<glyph unicode="&#xc3;" horiz-adv-x="1323" d="M20 0l590 1446h115l575 -1446h-149l-166 436h-647l-164 -436h-154zM324 1612q12 37 30.5 73.5t43 67.5t57 50.5t73.5 19.5q37 0 73 -15.5t61 -29.5q43 -23 67.5 -37.5t39.5 -21.5t24.5 -9t19.5 -2q41 0 65.5 32t47.5 75l84 -37v-11q-14 -29 -30.5 -60.5t-40.5 -59 t-53.5 -45t-70.5 -17.5t-87 19.5t-83 40.5q-33 16 -70.5 34.5t-60.5 18.5q-43 0 -68.5 -36t-39.5 -77zM383 547h561l-278 737z" />
<glyph unicode="&#xc4;" horiz-adv-x="1323" d="M20 0l590 1446h115l575 -1446h-149l-166 436h-647l-164 -436h-154zM377 1608v196h137v-196h-137zM383 547h561l-278 737zM825 1608v196h138v-196h-138z" />
<glyph unicode="&#xc5;" horiz-adv-x="1323" d="M20 0l590 1446h115l575 -1446h-149l-166 436h-647l-164 -436h-154zM383 547h561l-278 737zM508 1696q0 68 48 115t114 47q68 0 116 -47.5t48 -114.5q0 -68 -48.5 -116t-115.5 -48q-68 0 -115 48t-47 116zM582 1698q0 -37 25.5 -61.5t60.5 -24.5t60.5 25.5t25.5 60.5 t-24.5 60.5t-61.5 25.5q-35 0 -60.5 -25.5t-25.5 -60.5z" />
<glyph unicode="&#xc6;" horiz-adv-x="2048" d="M0 0l926 1446h1024v-125h-842v-520h756v-127h-756v-551h881v-123h-1018v420h-543l-264 -420h-164zM508 547h463v745z" />
<glyph unicode="&#xc7;" horiz-adv-x="1366" d="M102 713q0 78 10.5 164t37 172t71.5 164.5t113.5 138t163 95.5t221.5 36q145 0 242.5 -39t160 -95.5t98 -122t58.5 -118.5l-137 -72q-18 90 -62.5 154.5t-91.5 97.5q-35 27 -72.5 42.5t-73.5 22.5t-66 8t-48 1q-117 0 -203 -38t-153 -132q-76 -104 -100.5 -223 t-24.5 -236q0 -37 4 -95t16.5 -125t36 -134.5t64.5 -122.5q43 -57 93 -91t101 -51.5t100.5 -22.5t88.5 -5q51 0 109.5 11.5t117.5 49.5q37 27 88 88.5t76 157.5l129 -78q-55 -119 -123 -188.5t-138.5 -105t-139 -46t-126.5 -12.5l-30 -59q16 4 28.5 5t28.5 1q63 0 103 -36 t40 -95q0 -78 -61 -123t-145 -45q-10 0 -24.5 1t-53.5 5v55q20 -2 34.5 -3t32.5 -1q41 0 64.5 11.5t34 25.5t12.5 27.5t2 15.5q0 33 -26.5 55.5t-73.5 22.5q-25 0 -44.5 -7t-35.5 -14v50l63 110q-35 2 -99.5 11.5t-135.5 39.5q-123 55 -193.5 149.5t-106.5 197t-45.5 197.5 t-9.5 153z" />
<glyph unicode="&#xc8;" horiz-adv-x="1236" d="M166 0v1446h944v-127h-807v-514h731v-127h-731v-551h858v-127h-995zM285 1833h217l203 -256h-119z" />
<glyph unicode="&#xc9;" horiz-adv-x="1236" d="M166 0v1446h944v-127h-807v-514h731v-127h-731v-551h858v-127h-995zM571 1577l201 256h217l-301 -256h-117z" />
<glyph unicode="&#xca;" horiz-adv-x="1236" d="M166 0v1446h944v-127h-807v-514h731v-127h-731v-551h858v-127h-995zM367 1581l215 252h86l213 -252h-101l-159 115l-158 -115h-96z" />
<glyph unicode="&#xcb;" horiz-adv-x="1236" d="M166 0v1446h944v-127h-807v-514h731v-127h-731v-551h858v-127h-995zM328 1608v196h137v-196h-137zM776 1608v196h137v-196h-137z" />
<glyph unicode="&#xcc;" horiz-adv-x="468" d="M-98 1833h217l203 -256h-119zM166 0v1446h137v-1446h-137z" />
<glyph unicode="&#xcd;" horiz-adv-x="468" d="M145 1577l201 256h217l-301 -256h-117zM166 0v1446h137v-1446h-137z" />
<glyph unicode="&#xce;" horiz-adv-x="468" d="M-16 1581l215 252h86l213 -252h-101l-159 115l-158 -115h-96zM166 0v1446h137v-1446h-137z" />
<glyph unicode="&#xcf;" horiz-adv-x="468" d="M-55 1608v196h137v-196h-137zM166 0v1446h137v-1446h-137zM393 1608v196h137v-196h-137z" />
<glyph unicode="&#xd0;" horiz-adv-x="1409" d="M0 719v110h166v617h385q117 -2 215 -7t176 -36t144.5 -93.5t114.5 -149.5t76 -196.5t28 -236.5q0 -205 -69 -366.5t-189 -256.5q-49 -39 -100.5 -59t-111 -30.5t-131 -12.5t-163.5 -2h-375v719h-166zM305 123h217h96.5t102.5 4t98 13.5t84 25.5q53 25 100.5 74t84 119.5 t58 161.5t21.5 198q0 92 -18.5 181t-53 165t-86 132t-116.5 87q-31 12 -61.5 19.5t-69.5 10.5t-88 4t-117 1h-252v-490h453v-110h-453v-596z" />
<glyph unicode="&#xd1;" horiz-adv-x="1449" d="M166 0v1446h133l862 -1237l-12 1237h135v-1446h-135l-850 1249v-1249h-133zM387 1612q12 37 30.5 73.5t43 67.5t57.5 50.5t74 19.5q37 0 72.5 -15.5t60.5 -29.5q43 -23 67.5 -37.5t40 -21.5t24.5 -9t20 -2q41 0 65.5 32t46.5 75l84 -37v-11q-14 -29 -30.5 -60.5t-40 -59 t-53 -45t-70.5 -17.5t-87.5 19.5t-82.5 40.5q-33 16 -71 34.5t-60 18.5q-43 0 -69 -36t-40 -77z" />
<glyph unicode="&#xd2;" horiz-adv-x="1449" d="M102 725q0 150 38 287t115 241.5t194.5 167t279.5 62.5q180 0 299 -71t190.5 -181.5t100.5 -242.5t29 -255q0 -82 -13.5 -165t-36 -157.5t-57.5 -141t-78 -117.5q-53 -61 -110.5 -99.5t-114.5 -58t-110.5 -25.5t-98.5 -6q-135 0 -244.5 45t-199.5 152q-78 90 -130.5 231 t-52.5 334zM248 723q0 -100 22.5 -213t76.5 -207t146.5 -155.5t229.5 -61.5q113 0 190.5 40t131 101.5t84 137t47 147.5t20.5 131t4 88q0 98 -21.5 210t-75.5 205t-145.5 155.5t-228.5 62.5t-230 -61.5t-148.5 -155.5t-79 -207t-23.5 -217zM391 1833h217l203 -256h-119z" />
<glyph unicode="&#xd3;" horiz-adv-x="1449" d="M102 725q0 150 38 287t115 241.5t194.5 167t279.5 62.5q180 0 299 -71t190.5 -181.5t100.5 -242.5t29 -255q0 -82 -13.5 -165t-36 -157.5t-57.5 -141t-78 -117.5q-53 -61 -110.5 -99.5t-114.5 -58t-110.5 -25.5t-98.5 -6q-135 0 -244.5 45t-199.5 152q-78 90 -130.5 231 t-52.5 334zM248 723q0 -100 22.5 -213t76.5 -207t146.5 -155.5t229.5 -61.5q113 0 190.5 40t131 101.5t84 137t47 147.5t20.5 131t4 88q0 98 -21.5 210t-75.5 205t-145.5 155.5t-228.5 62.5t-230 -61.5t-148.5 -155.5t-79 -207t-23.5 -217zM635 1577l201 256h217l-301 -256 h-117z" />
<glyph unicode="&#xd4;" horiz-adv-x="1449" d="M102 725q0 150 38 287t115 241.5t194.5 167t279.5 62.5q180 0 299 -71t190.5 -181.5t100.5 -242.5t29 -255q0 -82 -13.5 -165t-36 -157.5t-57.5 -141t-78 -117.5q-53 -61 -110.5 -99.5t-114.5 -58t-110.5 -25.5t-98.5 -6q-135 0 -244.5 45t-199.5 152q-78 90 -130.5 231 t-52.5 334zM248 723q0 -100 22.5 -213t76.5 -207t146.5 -155.5t229.5 -61.5q113 0 190.5 40t131 101.5t84 137t47 147.5t20.5 131t4 88q0 98 -21.5 210t-75.5 205t-145.5 155.5t-228.5 62.5t-230 -61.5t-148.5 -155.5t-79 -207t-23.5 -217zM473 1581l215 252h86l213 -252 h-100l-160 115l-158 -115h-96z" />
<glyph unicode="&#xd5;" horiz-adv-x="1449" d="M102 725q0 150 38 287t115 241.5t194.5 167t279.5 62.5q180 0 299 -71t190.5 -181.5t100.5 -242.5t29 -255q0 -82 -13.5 -165t-36 -157.5t-57.5 -141t-78 -117.5q-53 -61 -110.5 -99.5t-114.5 -58t-110.5 -25.5t-98.5 -6q-135 0 -244.5 45t-199.5 152q-78 90 -130.5 231 t-52.5 334zM248 723q0 -100 22.5 -213t76.5 -207t146.5 -155.5t229.5 -61.5q113 0 190.5 40t131 101.5t84 137t47 147.5t20.5 131t4 88q0 98 -21.5 210t-75.5 205t-145.5 155.5t-228.5 62.5t-230 -61.5t-148.5 -155.5t-79 -207t-23.5 -217zM387 1612q12 37 30.5 73.5 t43 67.5t57.5 50.5t74 19.5q37 0 72.5 -15.5t60.5 -29.5q43 -23 67.5 -37.5t40 -21.5t24.5 -9t20 -2q41 0 65.5 32t46.5 75l84 -37v-11q-14 -29 -30.5 -60.5t-40 -59t-53 -45t-70.5 -17.5t-87.5 19.5t-82.5 40.5q-33 16 -71 34.5t-60 18.5q-43 0 -69 -36t-40 -77z" />
<glyph unicode="&#xd6;" horiz-adv-x="1449" d="M102 725q0 150 38 287t115 241.5t194.5 167t279.5 62.5q180 0 299 -71t190.5 -181.5t100.5 -242.5t29 -255q0 -82 -13.5 -165t-36 -157.5t-57.5 -141t-78 -117.5q-53 -61 -110.5 -99.5t-114.5 -58t-110.5 -25.5t-98.5 -6q-135 0 -244.5 45t-199.5 152q-78 90 -130.5 231 t-52.5 334zM248 723q0 -100 22.5 -213t76.5 -207t146.5 -155.5t229.5 -61.5q113 0 190.5 40t131 101.5t84 137t47 147.5t20.5 131t4 88q0 98 -21.5 210t-75.5 205t-145.5 155.5t-228.5 62.5t-230 -61.5t-148.5 -155.5t-79 -207t-23.5 -217zM436 1608v196h137v-196h-137z M885 1608v196h137v-196h-137z" />
<glyph unicode="&#xd7;" horiz-adv-x="1366" d="M172 170l424 426l-424 422l86 86l424 -424l426 424l84 -86l-424 -422l424 -426l-84 -84l-426 424l-424 -424z" />
<glyph unicode="&#xd8;" horiz-adv-x="1449" d="M102 725q0 178 44 318.5t127 237.5t200 149.5t262 52.5q129 0 234.5 -40t191.5 -132l123 151l82 -65l-139 -166q23 -37 45 -85t40.5 -107.5t30 -134.5t11.5 -167q0 -143 -33 -281.5t-106.5 -248t-193.5 -177t-296 -67.5q-90 0 -158.5 17.5t-118 42t-82 52t-51.5 48.5 l-118 -143l-78 63l131 160q-25 37 -50.5 86t-47 112.5t-36 143.5t-14.5 180zM248 729q0 -111 20.5 -216t73.5 -200l725 887q-6 12 -27.5 38t-59.5 53.5t-96.5 48t-142.5 20.5q-109 0 -199.5 -37t-166.5 -139q-76 -104 -101.5 -224t-25.5 -231zM401 229q12 -14 37 -39.5 t64 -48t95 -40t132 -17.5q109 0 197 39t153 127q43 57 69 120.5t39 125t16 116t3 90.5q0 53 -4 104.5t-12 104.5q-14 84 -30.5 127t-33.5 72z" />
<glyph unicode="&#xd9;" horiz-adv-x="1409" d="M164 776v670h135v-860q0 -119 9 -205t61 -154q35 -49 117.5 -93t218.5 -44q39 0 88 5t100 26q84 33 130 88t69 151q10 37 12 92.5t2 96.5v897h137v-658q0 -150 -2 -255t-13 -181t-36 -131t-72 -104q-78 -84 -187.5 -119t-223.5 -35q-184 0 -321.5 78t-190.5 235 q-12 39 -18.5 78t-9.5 93.5t-4 132t-1 196.5zM371 1833h217l203 -256h-119z" />
<glyph unicode="&#xda;" horiz-adv-x="1409" d="M164 776v670h135v-860q0 -119 9 -205t61 -154q35 -49 117.5 -93t218.5 -44q39 0 88 5t100 26q84 33 130 88t69 151q10 37 12 92.5t2 96.5v897h137v-658q0 -150 -2 -255t-13 -181t-36 -131t-72 -104q-78 -84 -187.5 -119t-223.5 -35q-184 0 -321.5 78t-190.5 235 q-12 39 -18.5 78t-9.5 93.5t-4 132t-1 196.5zM614 1577l201 256h217l-301 -256h-117z" />
<glyph unicode="&#xdb;" horiz-adv-x="1409" d="M164 776v670h135v-860q0 -119 9 -205t61 -154q35 -49 117.5 -93t218.5 -44q39 0 88 5t100 26q84 33 130 88t69 151q10 37 12 92.5t2 96.5v897h137v-658q0 -150 -2 -255t-13 -181t-36 -131t-72 -104q-78 -84 -187.5 -119t-223.5 -35q-184 0 -321.5 78t-190.5 235 q-12 39 -18.5 78t-9.5 93.5t-4 132t-1 196.5zM453 1581l215 252h86l213 -252h-101l-159 115l-158 -115h-96z" />
<glyph unicode="&#xdc;" horiz-adv-x="1409" d="M164 776v670h135v-860q0 -119 9 -205t61 -154q35 -49 117.5 -93t218.5 -44q39 0 88 5t100 26q84 33 130 88t69 151q10 37 12 92.5t2 96.5v897h137v-658q0 -150 -2 -255t-13 -181t-36 -131t-72 -104q-78 -84 -187.5 -119t-223.5 -35q-184 0 -321.5 78t-190.5 235 q-12 39 -18.5 78t-9.5 93.5t-4 132t-1 196.5zM414 1608v196h137v-196h-137zM862 1608v196h137v-196h-137z" />
<glyph unicode="&#xdd;" horiz-adv-x="1280" d="M20 1446h160l447 -719l465 719h165l-565 -848v-598h-133v598zM549 1577l201 256h217l-301 -256h-117z" />
<glyph unicode="&#xde;" horiz-adv-x="1280" d="M166 0v1446h129v-223h364q82 0 143.5 -1t107.5 -4.5t82 -11.5t69 -22q86 -41 140 -132t54 -225q0 -33 -8 -88t-36.5 -112.5t-83 -107.5t-148.5 -70q-27 -6 -50.5 -9.5t-60.5 -5.5t-95 -3t-157 -3h-321v-428h-129zM295 549h309h66q63 0 102 1t64.5 2t42 3t30.5 4 q113 18 163 94t50 176q0 68 -24.5 130.5t-79.5 101.5q-25 16 -50.5 25.5t-64.5 14.5t-100.5 6t-157.5 1h-350v-559z" />
<glyph unicode="&#xdf;" horiz-adv-x="1024" d="M152 0v926q0 68 1 118t4 90t9 71.5t16 62.5q35 94 118 154.5t214 60.5q98 0 163.5 -34t105.5 -86t57.5 -112.5t17.5 -115.5q0 -51 -13.5 -100.5t-42 -91.5t-74.5 -71.5t-114 -42.5q23 -2 51.5 -9t61.5 -21.5t65.5 -41t63.5 -69.5q41 -61 63.5 -142t22.5 -171 q0 -88 -23.5 -163t-67.5 -129t-105.5 -84t-135.5 -30q-78 0 -135 23.5t-86 40.5v139q47 -33 104.5 -62.5t116.5 -29.5q92 0 146.5 75.5t54.5 223.5q0 117 -36 186.5t-73 104.5q-39 37 -85 55t-92 25.5t-88 7.5t-75 -2v118q86 -4 158 10.5t113 43.5q39 29 67.5 82t28.5 125 q0 45 -13.5 87t-40 73.5t-68.5 51t-97 19.5q-70 0 -113 -24.5t-63 -47.5q-25 -27 -38 -61.5t-19.5 -82.5t-7.5 -115.5t-1 -160.5v-874h-116z" />
<glyph unicode="&#xe0;" horiz-adv-x="1024" d="M92 246q0 84 41 139t113.5 93t171 64.5t213.5 53.5l117 27v49q0 27 -4.5 64.5t-26 73.5t-69.5 61.5t-138 25.5t-141.5 -22.5t-76 -57.5t-31.5 -77t-7 -81l-133 23q6 37 17.5 81t39.5 87q53 84 140.5 117.5t187.5 33.5q45 0 98 -7t102.5 -27.5t88.5 -58.5t55 -97 q10 -35 11 -76t1 -112v-316q0 -63 3 -105t16.5 -65.5t43 -32t85.5 -8.5v-96q-55 0 -101.5 4t-81 20.5t-55 49t-24.5 88.5v18q-4 -8 -9 -20q-43 -90 -138 -135t-202 -45q-90 0 -149.5 27.5t-94 67.5t-49 86t-14.5 85zM211 248q0 -29 11 -57.5t35 -52t60.5 -38t88.5 -14.5 q70 0 141 29.5t119 77.5q57 57 68 117.5t14 133.5v72l-62 -14q-51 -14 -88 -23.5t-64.5 -17.5t-49 -13.5t-40.5 -11.5q-41 -12 -83 -25.5t-75.5 -35t-54 -52t-20.5 -75.5zM217 1430h227l230 -287h-109z" />
<glyph unicode="&#xe1;" horiz-adv-x="1024" d="M92 246q0 84 41 139t113.5 93t171 64.5t213.5 53.5l117 27v49q0 27 -4.5 64.5t-26 73.5t-69.5 61.5t-138 25.5t-141.5 -22.5t-76 -57.5t-31.5 -77t-7 -81l-133 23q6 37 17.5 81t39.5 87q53 84 140.5 117.5t187.5 33.5q45 0 98 -7t102.5 -27.5t88.5 -58.5t55 -97 q10 -35 11 -76t1 -112v-316q0 -63 3 -105t16.5 -65.5t43 -32t85.5 -8.5v-96q-55 0 -101.5 4t-81 20.5t-55 49t-24.5 88.5v18q-4 -8 -9 -20q-43 -90 -138 -135t-202 -45q-90 0 -149.5 27.5t-94 67.5t-49 86t-14.5 85zM211 248q0 -29 11 -57.5t35 -52t60.5 -38t88.5 -14.5 q70 0 141 29.5t119 77.5q57 57 68 117.5t14 133.5v72l-62 -14q-51 -14 -88 -23.5t-64.5 -17.5t-49 -13.5t-40.5 -11.5q-41 -12 -83 -25.5t-75.5 -35t-54 -52t-20.5 -75.5zM428 1143l230 287h227l-348 -287h-109z" />
<glyph unicode="&#xe2;" horiz-adv-x="1024" d="M92 246q0 84 41 139t113.5 93t171 64.5t213.5 53.5l117 27v49q0 27 -4.5 64.5t-26 73.5t-69.5 61.5t-138 25.5t-141.5 -22.5t-76 -57.5t-31.5 -77t-7 -81l-133 23q6 37 17.5 81t39.5 87q53 84 140.5 117.5t187.5 33.5q45 0 98 -7t102.5 -27.5t88.5 -58.5t55 -97 q10 -35 11 -76t1 -112v-316q0 -63 3 -105t16.5 -65.5t43 -32t85.5 -8.5v-96q-55 0 -101.5 4t-81 20.5t-55 49t-24.5 88.5v18q-4 -8 -9 -20q-43 -90 -138 -135t-202 -45q-90 0 -149.5 27.5t-94 67.5t-49 86t-14.5 85zM211 248q0 -29 11 -57.5t35 -52t60.5 -38t88.5 -14.5 q70 0 141 29.5t119 77.5q57 57 68 117.5t14 133.5v72l-62 -14q-51 -14 -88 -23.5t-64.5 -17.5t-49 -13.5t-40.5 -11.5q-41 -12 -83 -25.5t-75.5 -35t-54 -52t-20.5 -75.5zM228 1143l262 282h53l276 -282h-106l-201 133l-182 -133h-102z" />
<glyph unicode="&#xe3;" horiz-adv-x="1024" d="M92 246q0 84 41 139t113.5 93t171 64.5t213.5 53.5l117 27v49q0 27 -4.5 64.5t-26 73.5t-69.5 61.5t-138 25.5t-141.5 -22.5t-76 -57.5t-31.5 -77t-7 -81l-133 23q6 37 17.5 81t39.5 87q53 84 140.5 117.5t187.5 33.5q45 0 98 -7t102.5 -27.5t88.5 -58.5t55 -97 q10 -35 11 -76t1 -112v-316q0 -63 3 -105t16.5 -65.5t43 -32t85.5 -8.5v-96q-55 0 -101.5 4t-81 20.5t-55 49t-24.5 88.5v18q-4 -8 -9 -20q-43 -90 -138 -135t-202 -45q-90 0 -149.5 27.5t-94 67.5t-49 86t-14.5 85zM192 1208q8 18 21.5 49t37 60t56 49t78.5 20 q41 0 78.5 -16t72.5 -35q35 -18 62.5 -29.5t50.5 -11.5q45 0 66.5 31t31.5 57l84 -20q-14 -31 -31.5 -63.5t-40 -59.5t-52.5 -44t-71 -17q-37 0 -75.5 17t-83.5 40q-47 23 -67.5 32t-39.5 9q-39 0 -58.5 -28.5t-33.5 -57.5zM211 248q0 -29 11 -57.5t35 -52t60.5 -38 t88.5 -14.5q70 0 141 29.5t119 77.5q57 57 68 117.5t14 133.5v72l-62 -14q-51 -14 -88 -23.5t-64.5 -17.5t-49 -13.5t-40.5 -11.5q-41 -12 -83 -25.5t-75.5 -35t-54 -52t-20.5 -75.5z" />
<glyph unicode="&#xe4;" horiz-adv-x="1024" d="M92 246q0 84 41 139t113.5 93t171 64.5t213.5 53.5l117 27v49q0 27 -4.5 64.5t-26 73.5t-69.5 61.5t-138 25.5t-141.5 -22.5t-76 -57.5t-31.5 -77t-7 -81l-133 23q6 37 17.5 81t39.5 87q53 84 140.5 117.5t187.5 33.5q45 0 98 -7t102.5 -27.5t88.5 -58.5t55 -97 q10 -35 11 -76t1 -112v-316q0 -63 3 -105t16.5 -65.5t43 -32t85.5 -8.5v-96q-55 0 -101.5 4t-81 20.5t-55 49t-24.5 88.5v18q-4 -8 -9 -20q-43 -90 -138 -135t-202 -45q-90 0 -149.5 27.5t-94 67.5t-49 86t-14.5 85zM211 248q0 -29 11 -57.5t35 -52t60.5 -38t88.5 -14.5 q70 0 141 29.5t119 77.5q57 57 68 117.5t14 133.5v72l-62 -14q-51 -14 -88 -23.5t-64.5 -17.5t-49 -13.5t-40.5 -11.5q-41 -12 -83 -25.5t-75.5 -35t-54 -52t-20.5 -75.5zM250 1192v188h125v-188h-125zM602 1192v188h125v-188h-125z" />
<glyph unicode="&#xe5;" horiz-adv-x="1024" d="M92 246q0 84 41 139t113.5 93t171 64.5t213.5 53.5l117 27v49q0 27 -4.5 64.5t-26 73.5t-69.5 61.5t-138 25.5t-141.5 -22.5t-76 -57.5t-31.5 -77t-7 -81l-133 23q6 37 17.5 81t39.5 87q53 84 140.5 117.5t187.5 33.5q45 0 98 -7t102.5 -27.5t88.5 -58.5t55 -97 q10 -35 11 -76t1 -112v-316q0 -63 3 -105t16.5 -65.5t43 -32t85.5 -8.5v-96q-55 0 -101.5 4t-81 20.5t-55 49t-24.5 88.5v18q-4 -8 -9 -20q-43 -90 -138 -135t-202 -45q-90 0 -149.5 27.5t-94 67.5t-49 86t-14.5 85zM211 248q0 -29 11 -57.5t35 -52t60.5 -38t88.5 -14.5 q70 0 141 29.5t119 77.5q57 57 68 117.5t14 133.5v72l-62 -14q-51 -14 -88 -23.5t-64.5 -17.5t-49 -13.5t-40.5 -11.5q-41 -12 -83 -25.5t-75.5 -35t-54 -52t-20.5 -75.5zM330 1292q0 68 47 115t114 47q68 0 115 -47t47 -115t-47 -115t-115 -47t-114.5 47t-46.5 115z M403 1292q0 -35 26 -60.5t60 -25.5q35 0 60.5 25.5t25.5 60.5t-25.5 60.5t-60.5 25.5t-60.5 -25.5t-25.5 -60.5z" />
<glyph unicode="&#xe6;" horiz-adv-x="1705" d="M78 242q0 78 36 131t103.5 91t164.5 66.5t220 55.5l146 37v75.5t-2.5 46t-4.5 26.5t-4 15q-6 16 -17 34t-34.5 33t-61.5 25.5t-98 10.5q-55 0 -107 -9.5t-92 -35t-62.5 -69.5t-20.5 -116l-135 17q4 29 12 65.5t33 81.5q35 61 85 97t102 53.5t100 21.5t77 4 q78 0 135.5 -14t97.5 -36.5t63.5 -51.5t35.5 -57q20 31 38.5 50t47.5 42q35 23 94.5 45t151.5 22q90 0 170 -29.5t139 -92t94 -159.5t37 -233h-754q0 -12 -1 -24t-1 -25q0 -86 22.5 -147.5t55.5 -100.5q41 -47 106.5 -76.5t143.5 -29.5q66 0 116 18.5t87 49t64.5 70.5 t49.5 83l111 -22q-41 -106 -99.5 -165t-95.5 -81q-51 -31 -115.5 -45.5t-123.5 -14.5q-47 0 -104.5 10.5t-111.5 38t-101.5 73.5t-73.5 118q-10 -20 -35 -59t-71 -78t-118.5 -68.5t-177.5 -29.5q-53 0 -89 7t-60 15q-80 29 -124 91.5t-44 148.5zM197 246q0 -27 9 -54.5 t31.5 -50t59.5 -37t94 -14.5q66 0 135.5 22.5t124.5 65.5q35 29 54.5 58.5t28.5 60.5t11.5 64.5t2.5 70.5v82q-63 -16 -128 -32.5t-123.5 -32t-106.5 -31t-81 -29.5q-14 -6 -33.5 -16.5t-37 -27.5t-29.5 -40.5t-12 -58.5zM868 586h611q-2 25 -7.5 56.5t-16.5 65t-32.5 67.5 t-56.5 61q-39 29 -87 43t-97 14q-33 0 -83 -9.5t-98.5 -41t-85 -93t-47.5 -163.5z" />
<glyph unicode="&#xe7;" horiz-adv-x="980" d="M90 481q0 123 36 219.5t98.5 163t148.5 101t186 34.5q102 0 171 -30.5t112 -72.5t63.5 -83t26.5 -59l-113 -27q-20 47 -51 79t-67.5 50t-74.5 26.5t-73 8.5q-70 0 -130.5 -26.5t-105.5 -79t-70.5 -127t-25.5 -173.5q0 -55 13.5 -125.5t48 -133t98 -104.5t164.5 -42 q76 0 145.5 35t116.5 129l125 -27q-23 -47 -53.5 -89t-74.5 -76t-104.5 -54.5t-140.5 -24.5l-37 -69q16 4 28.5 5t29.5 1q63 0 103 -36t40 -95q0 -78 -61.5 -123t-145.5 -45q-10 0 -25.5 1t-52.5 5v55q18 -2 33.5 -3t32.5 -1q43 0 65.5 11.5t33.5 25.5t13 27.5t2 15.5 q0 33 -27.5 55.5t-74.5 22.5q-25 0 -43 -7t-35 -14v50l70 120q-35 4 -76 10.5t-92 28.5q-49 25 -95 66t-80 99.5t-54.5 134t-20.5 167.5z" />
<glyph unicode="&#xe8;" d="M90 496q0 121 37 215t99.5 158.5t144.5 97t170 32.5q111 0 194.5 -44t139 -116.5t83 -163.5t23.5 -188h-758q-2 -39 3 -92t28 -110q29 -76 74 -117t90 -59.5t84 -21.5t53 -3q41 0 83 8t83 30.5t79 62.5t68 104l113 -31q-10 -27 -31.5 -65.5t-60.5 -81.5q-10 -12 -35 -35 t-64.5 -45.5t-97 -39t-137.5 -16.5q-121 0 -209 43t-144.5 115t-84 166t-27.5 197zM162 1430h227l230 -287h-109zM225 586h619q-8 66 -30.5 125t-72.5 106q-31 29 -81 51.5t-121 22.5q-127 0 -212 -82t-102 -223z" />
<glyph unicode="&#xe9;" d="M90 496q0 121 37 215t99.5 158.5t144.5 97t170 32.5q111 0 194.5 -44t139 -116.5t83 -163.5t23.5 -188h-758q-2 -39 3 -92t28 -110q29 -76 74 -117t90 -59.5t84 -21.5t53 -3q41 0 83 8t83 30.5t79 62.5t68 104l113 -31q-10 -27 -31.5 -65.5t-60.5 -81.5q-10 -12 -35 -35 t-64.5 -45.5t-97 -39t-137.5 -16.5q-121 0 -209 43t-144.5 115t-84 166t-27.5 197zM225 586h619q-8 66 -30.5 125t-72.5 106q-31 29 -81 51.5t-121 22.5q-127 0 -212 -82t-102 -223zM446 1143l230 287h227l-348 -287h-109z" />
<glyph unicode="&#xea;" d="M90 496q0 121 37 215t99.5 158.5t144.5 97t170 32.5q111 0 194.5 -44t139 -116.5t83 -163.5t23.5 -188h-758q-2 -39 3 -92t28 -110q29 -76 74 -117t90 -59.5t84 -21.5t53 -3q41 0 83 8t83 30.5t79 62.5t68 104l113 -31q-10 -27 -31.5 -65.5t-60.5 -81.5q-10 -12 -35 -35 t-64.5 -45.5t-97 -39t-137.5 -16.5q-121 0 -209 43t-144.5 115t-84 166t-27.5 197zM225 586h619q-8 66 -30.5 125t-72.5 106q-31 29 -81 51.5t-121 22.5q-127 0 -212 -82t-102 -223zM246 1143l262 282h53l276 -282h-106l-201 133l-182 -133h-102z" />
<glyph unicode="&#xeb;" d="M90 496q0 121 37 215t99.5 158.5t144.5 97t170 32.5q111 0 194.5 -44t139 -116.5t83 -163.5t23.5 -188h-758q-2 -39 3 -92t28 -110q29 -76 74 -117t90 -59.5t84 -21.5t53 -3q41 0 83 8t83 30.5t79 62.5t68 104l113 -31q-10 -27 -31.5 -65.5t-60.5 -81.5q-10 -12 -35 -35 t-64.5 -45.5t-97 -39t-137.5 -16.5q-121 0 -209 43t-144.5 115t-84 166t-27.5 197zM225 586h619q-8 66 -30.5 125t-72.5 106q-31 29 -81 51.5t-121 22.5q-127 0 -212 -82t-102 -223zM295 1192v188h125v-188h-125zM647 1192v188h125v-188h-125z" />
<glyph unicode="&#xec;" horiz-adv-x="425" d="M-156 1430h227l230 -287h-109zM154 0v977h118v-977h-118z" />
<glyph unicode="&#xed;" horiz-adv-x="425" d="M127 1143l230 287h227l-348 -287h-109zM154 0v977h118v-977h-118z" />
<glyph unicode="&#xee;" horiz-adv-x="425" d="M-71 1143l262 282h53l276 -282h-106l-201 133l-182 -133h-102zM154 0v977h118v-977h-118z" />
<glyph unicode="&#xef;" horiz-adv-x="425" d="M-22 1192v188h125v-188h-125zM154 0v977h118v-977h-118zM330 1192v188h125v-188h-125z" />
<glyph unicode="&#xf0;" d="M90 481q0 115 32 211t89 166t138 109t181 39q86 0 156 -33t133 -115q-10 35 -20.5 70t-25.5 72.5t-36.5 80.5t-54.5 95l-326 -105l-30 76l309 100q-51 66 -89 106t-69 68l88 56q41 -45 64.5 -72t41 -46.5t31 -36.5t31.5 -44l187 59l30 -75l-168 -54q115 -178 155 -351 t40 -318q0 -72 -8 -136.5t-29 -123.5q-8 -23 -31.5 -72t-70.5 -99.5t-122 -88t-186 -37.5q-117 0 -199.5 42t-136 112.5t-79 160.5t-25.5 184zM219 479q0 -104 24.5 -178t66.5 -122t98.5 -69.5t119.5 -21.5q80 0 139.5 29.5t99.5 83t59.5 126t19.5 158.5q0 14 -1 50 t-9.5 83.5t-26.5 97.5t-53 92t-88.5 68.5t-132.5 26.5q-66 0 -124.5 -25.5t-99.5 -74.5q-31 -37 -49 -81t-27.5 -88t-12.5 -84t-3 -71z" />
<glyph unicode="&#xf1;" d="M154 0v975h120v-174q12 37 37 72.5t63 63.5t89 44t117 16q20 0 52 -3t68.5 -14t75.5 -34.5t70 -64.5q25 -31 38 -64t19 -76t7 -99t1 -136v-506h-120v506q0 72 -1.5 120t-4.5 80.5t-10 55t-21 43.5q-18 27 -63.5 55.5t-127.5 28.5q-84 0 -136 -30t-91 -81 q-23 -31 -35 -60.5t-18.5 -68.5t-7.5 -91t-1 -130v-428h-120zM211 1208q8 18 21.5 49t37 60t56 49t78.5 20q41 0 78.5 -16t72.5 -35q35 -18 62.5 -29.5t50.5 -11.5q45 0 66.5 31t31.5 57l84 -20q-14 -31 -31.5 -63.5t-40 -59.5t-52.5 -44t-71 -17q-37 0 -75.5 17t-83.5 40 q-47 23 -67.5 32t-39.5 9q-39 0 -58.5 -28.5t-33.5 -57.5z" />
<glyph unicode="&#xf2;" d="M90 475q0 96 25.5 189.5t79 168t137.5 120.5t203 46q117 0 199.5 -44t137 -114.5t80 -161.5t25.5 -185q0 -111 -31 -206t-88 -165t-140 -109t-188 -39q-106 0 -188 40t-138.5 107.5t-85 159t-28.5 193.5zM162 1430h227l230 -287h-109zM219 473q0 -104 24.5 -178 t67.5 -122t99.5 -69.5t119.5 -21.5q80 0 139.5 29.5t99.5 83t59.5 126t19.5 158.5q0 14 -1 50t-9.5 83t-26.5 97.5t-53 92.5t-88.5 68.5t-132.5 26.5q-66 0 -125.5 -25.5t-100.5 -74.5q-31 -37 -49 -81t-27.5 -88t-12.5 -84t-3 -71z" />
<glyph unicode="&#xf3;" d="M90 475q0 96 25.5 189.5t79 168t137.5 120.5t203 46q117 0 199.5 -44t137 -114.5t80 -161.5t25.5 -185q0 -111 -31 -206t-88 -165t-140 -109t-188 -39q-106 0 -188 40t-138.5 107.5t-85 159t-28.5 193.5zM219 473q0 -104 24.5 -178t67.5 -122t99.5 -69.5t119.5 -21.5 q80 0 139.5 29.5t99.5 83t59.5 126t19.5 158.5q0 14 -1 50t-9.5 83t-26.5 97.5t-53 92.5t-88.5 68.5t-132.5 26.5q-66 0 -125.5 -25.5t-100.5 -74.5q-31 -37 -49 -81t-27.5 -88t-12.5 -84t-3 -71zM446 1143l230 287h227l-348 -287h-109z" />
<glyph unicode="&#xf4;" d="M90 475q0 96 25.5 189.5t79 168t137.5 120.5t203 46q117 0 199.5 -44t137 -114.5t80 -161.5t25.5 -185q0 -111 -31 -206t-88 -165t-140 -109t-188 -39q-106 0 -188 40t-138.5 107.5t-85 159t-28.5 193.5zM219 473q0 -104 24.5 -178t67.5 -122t99.5 -69.5t119.5 -21.5 q80 0 139.5 29.5t99.5 83t59.5 126t19.5 158.5q0 14 -1 50t-9.5 83t-26.5 97.5t-53 92.5t-88.5 68.5t-132.5 26.5q-66 0 -125.5 -25.5t-100.5 -74.5q-31 -37 -49 -81t-27.5 -88t-12.5 -84t-3 -71zM246 1143l262 282h53l276 -282h-106l-201 133l-182 -133h-102z" />
<glyph unicode="&#xf5;" d="M90 475q0 96 25.5 189.5t79 168t137.5 120.5t203 46q117 0 199.5 -44t137 -114.5t80 -161.5t25.5 -185q0 -111 -31 -206t-88 -165t-140 -109t-188 -39q-106 0 -188 40t-138.5 107.5t-85 159t-28.5 193.5zM211 1208q8 18 21.5 49t37 60t56 49t78.5 20q41 0 78.5 -16 t72.5 -35q35 -18 62.5 -29.5t50.5 -11.5q45 0 66.5 31t31.5 57l84 -20q-14 -31 -31.5 -63.5t-40 -59.5t-52.5 -44t-71 -17q-37 0 -75.5 17t-83.5 40q-47 23 -67.5 32t-39.5 9q-39 0 -58.5 -28.5t-33.5 -57.5zM219 473q0 -104 24.5 -178t67.5 -122t99.5 -69.5t119.5 -21.5 q80 0 139.5 29.5t99.5 83t59.5 126t19.5 158.5q0 14 -1 50t-9.5 83t-26.5 97.5t-53 92.5t-88.5 68.5t-132.5 26.5q-66 0 -125.5 -25.5t-100.5 -74.5q-31 -37 -49 -81t-27.5 -88t-12.5 -84t-3 -71z" />
<glyph unicode="&#xf6;" d="M90 475q0 96 25.5 189.5t79 168t137.5 120.5t203 46q117 0 199.5 -44t137 -114.5t80 -161.5t25.5 -185q0 -111 -31 -206t-88 -165t-140 -109t-188 -39q-106 0 -188 40t-138.5 107.5t-85 159t-28.5 193.5zM219 473q0 -104 24.5 -178t67.5 -122t99.5 -69.5t119.5 -21.5 q80 0 139.5 29.5t99.5 83t59.5 126t19.5 158.5q0 14 -1 50t-9.5 83t-26.5 97.5t-53 92.5t-88.5 68.5t-132.5 26.5q-66 0 -125.5 -25.5t-100.5 -74.5q-31 -37 -49 -81t-27.5 -88t-12.5 -84t-3 -71zM295 1192v188h125v-188h-125zM647 1192v188h125v-188h-125z" />
<glyph unicode="&#xf7;" horiz-adv-x="1366" d="M0 535v120h1366v-120h-1366zM592 328q0 39 27.5 66.5t66.5 27.5t66.5 -27.5t27.5 -66.5t-27.5 -67t-66.5 -28t-66.5 28t-27.5 67zM592 862q0 39 27.5 66.5t66.5 27.5t66.5 -27.5t27.5 -66.5t-27.5 -66.5t-66.5 -27.5t-66.5 27.5t-27.5 66.5z" />
<glyph unicode="&#xf8;" d="M90 485q0 98 28.5 190.5t84 165t138.5 116.5t191 44q59 0 108.5 -12t98.5 -39l49 82l78 -45l-53 -92q86 -80 125 -180.5t39 -220.5q0 -111 -31 -206t-88 -164t-139 -109t-184 -40q-88 0 -138.5 19.5t-77.5 34.5l-40 -74l-78 45l45 78q-78 82 -117 187.5t-39 219.5z M213 483q0 -86 21.5 -158.5t70.5 -142.5l385 674q-16 10 -53 25.5t-96 15.5q-70 0 -130.5 -29.5t-104.5 -84t-68.5 -131.5t-24.5 -169zM371 125q41 -29 83 -36t72 -7q88 0 147.5 32.5t98.5 82.5q53 72 67.5 151.5t14.5 138.5q0 68 -10 118t-24.5 88t-31 63.5t-28.5 44.5z " />
<glyph unicode="&#xf9;" d="M154 498v479h120v-506q0 -80 4.5 -149.5t25 -122t65.5 -82t127 -29.5q41 0 97 13.5t109 68.5q33 35 50.5 72t25.5 82t10.5 100t2.5 123v430h120v-977h-120v176q-6 -16 -17.5 -38.5t-32.5 -49.5q-57 -70 -128.5 -90.5t-131.5 -20.5q-70 0 -121 19.5t-86.5 47.5t-55 59.5 t-30.5 54.5q-25 57 -29.5 137t-4.5 203zM162 1430h227l230 -287h-109z" />
<glyph unicode="&#xfa;" d="M154 498v479h120v-506q0 -80 4.5 -149.5t25 -122t65.5 -82t127 -29.5q41 0 97 13.5t109 68.5q33 35 50.5 72t25.5 82t10.5 100t2.5 123v430h120v-977h-120v176q-6 -16 -17.5 -38.5t-32.5 -49.5q-57 -70 -128.5 -90.5t-131.5 -20.5q-70 0 -121 19.5t-86.5 47.5t-55 59.5 t-30.5 54.5q-25 57 -29.5 137t-4.5 203zM446 1143l230 287h227l-348 -287h-109z" />
<glyph unicode="&#xfb;" d="M154 498v479h120v-506q0 -80 4.5 -149.5t25 -122t65.5 -82t127 -29.5q41 0 97 13.5t109 68.5q33 35 50.5 72t25.5 82t10.5 100t2.5 123v430h120v-977h-120v176q-6 -16 -17.5 -38.5t-32.5 -49.5q-57 -70 -128.5 -90.5t-131.5 -20.5q-70 0 -121 19.5t-86.5 47.5t-55 59.5 t-30.5 54.5q-25 57 -29.5 137t-4.5 203zM246 1143l262 282h53l276 -282h-106l-201 133l-182 -133h-102z" />
<glyph unicode="&#xfc;" d="M154 498v479h120v-506q0 -80 4.5 -149.5t25 -122t65.5 -82t127 -29.5q41 0 97 13.5t109 68.5q33 35 50.5 72t25.5 82t10.5 100t2.5 123v430h120v-977h-120v176q-6 -16 -17.5 -38.5t-32.5 -49.5q-57 -70 -128.5 -90.5t-131.5 -20.5q-70 0 -121 19.5t-86.5 47.5t-55 59.5 t-30.5 54.5q-25 57 -29.5 137t-4.5 203zM295 1192v188h125v-188h-125zM647 1192v188h125v-188h-125z" />
<glyph unicode="&#xfd;" horiz-adv-x="894" d="M20 -332q43 -31 76 -40t51 -9q45 0 70 25.5t51 91.5q4 6 11.5 23.5t14.5 38t15 38t10 23.5l52 141l-338 977h117l284 -832l318 832h122l-440 -1118q-27 -68 -44 -109t-27.5 -65.5t-16.5 -39t-14 -28.5q-35 -57 -75 -84t-105 -27q-51 0 -83 14.5t-49 24.5v123zM362 1143 l230 287h227l-348 -287h-109z" />
<glyph unicode="&#xfe;" d="M156 -518v1964h118v-629q10 25 21.5 44.5t38.5 45.5q47 47 108.5 68.5t126.5 21.5q119 0 198 -51t125 -128t65.5 -167t19.5 -166q0 -98 -26.5 -190t-78 -163t-127 -113t-174.5 -42q-94 0 -175 43t-122 142v-680h-118zM274 400.5q2 -48.5 15 -95.5q16 -59 42.5 -100 t61.5 -65.5t75 -36t81 -11.5q90 0 148.5 41t92 102.5t48 132t14.5 132.5q0 80 -18.5 149.5t-55.5 122.5t-94 84t-135 31q-98 0 -153.5 -47t-82 -111.5t-33 -128t-6.5 -98.5q-2 -53 0 -101.5z" />
<glyph unicode="&#xff;" horiz-adv-x="894" d="M20 -332q43 -31 76 -40t51 -9q45 0 70 25.5t51 91.5q4 6 11.5 23.5t14.5 38t15 38t10 23.5l52 141l-338 977h117l284 -832l318 832h122l-440 -1118q-27 -68 -44 -109t-27.5 -65.5t-16.5 -39t-14 -28.5q-35 -57 -75 -84t-105 -27q-51 0 -83 14.5t-49 24.5v123zM211 1192 v188h125v-188h-125zM563 1192v188h125v-188h-125z" />
<glyph unicode="&#x152;" horiz-adv-x="2174" d="M102 719q0 154 44 291t133.5 240.5t222.5 164t313 60.5q80 0 140.5 -9.5t119.5 -19.5h975v-121h-836v-524h758v-127h-758v-551h887v-123h-1003q-39 -10 -111 -23.5t-174 -13.5q-164 0 -296 54.5t-224 153.5t-141.5 238.5t-49.5 309.5zM246 705q0 -158 47 -275t129 -193.5 t190.5 -113.5t233.5 -37q90 0 143 13.5t86 23.5v1202q-43 8 -102.5 15.5t-128.5 7.5q-127 0 -246 -39t-205 -133q-63 -72 -105 -192t-42 -279z" />
<glyph unicode="&#x153;" horiz-adv-x="1835" d="M90 481q0 84 22.5 175.5t75 167t139.5 125.5t216 50q109 0 179.5 -32.5t113.5 -74.5t61 -79t21 -45q12 23 37.5 60.5t71.5 76.5t113.5 66.5t162.5 27.5q109 0 191.5 -38.5t139 -106.5t85 -162t30.5 -205h-760q-2 -10 -2 -22v-29q0 -57 16.5 -120.5t54.5 -114.5t99.5 -85 t149.5 -34q80 0 137 24.5t96 59.5t60.5 70.5t31.5 56.5l117 -31q-45 -104 -104.5 -157.5t-92.5 -71.5q-47 -27 -108.5 -42.5t-136.5 -15.5q-37 0 -100.5 8.5t-129.5 47.5q-55 35 -92 77t-67 103q-8 -27 -39 -78t-109 -98q-51 -29 -112.5 -44.5t-120.5 -15.5 q-104 0 -187.5 39t-140.5 107.5t-88 161t-31 198.5zM221 496q0 -106 24.5 -185.5t67.5 -129.5t101.5 -74.5t124.5 -24.5q59 0 116.5 20.5t102.5 67.5t73.5 122.5t28.5 188.5q0 117 -27.5 197t-72.5 127t-101.5 67.5t-111.5 20.5q-143 0 -234.5 -102.5t-91.5 -294.5zM991 590 h619q-2 49 -20.5 103.5t-54.5 98.5t-92.5 72.5t-135.5 28.5q-70 0 -124.5 -23.5t-94 -63.5t-64.5 -95.5t-33 -120.5z" />
<glyph unicode="&#x178;" horiz-adv-x="1280" d="M20 1446h160l447 -719l465 719h165l-565 -848v-598h-133v598zM348 1608v196h137v-196h-137zM797 1608v196h137v-196h-137z" />
<glyph unicode="&#x2c6;" horiz-adv-x="555" d="M-18 1143l262 282h53l276 -282h-106l-201 133l-182 -133h-102z" />
<glyph unicode="&#x2dc;" horiz-adv-x="555" d="M-41 1208q8 18 21.5 49t37 60t56 49t78.5 20q41 0 78.5 -16t72.5 -35q35 -18 62.5 -29.5t50.5 -11.5q45 0 66.5 31t31.5 57l84 -20q-14 -31 -31.5 -63.5t-40 -59.5t-52.5 -44t-71 -17q-37 0 -75.5 17t-83.5 40q-47 23 -67.5 32t-39.5 9q-39 0 -58.5 -28.5t-33.5 -57.5z " />
<glyph unicode="&#x2000;" horiz-adv-x="929" />
<glyph unicode="&#x2001;" horiz-adv-x="1858" />
<glyph unicode="&#x2002;" horiz-adv-x="929" />
<glyph unicode="&#x2003;" horiz-adv-x="1858" />
<glyph unicode="&#x2004;" horiz-adv-x="619" />
<glyph unicode="&#x2005;" horiz-adv-x="464" />
<glyph unicode="&#x2006;" horiz-adv-x="309" />
<glyph unicode="&#x2007;" horiz-adv-x="309" />
<glyph unicode="&#x2008;" horiz-adv-x="232" />
<glyph unicode="&#x2009;" horiz-adv-x="371" />
<glyph unicode="&#x200a;" horiz-adv-x="103" />
<glyph unicode="&#x2010;" horiz-adv-x="724" d="M78 600v133h571v-133h-571z" />
<glyph unicode="&#x2011;" horiz-adv-x="724" d="M78 600v133h571v-133h-571z" />
<glyph unicode="&#x2012;" horiz-adv-x="724" d="M78 600v133h571v-133h-571z" />
<glyph unicode="&#x2013;" horiz-adv-x="1193" d="M78 600v133h1040v-133h-1040z" />
<glyph unicode="&#x2014;" horiz-adv-x="1409" d="M76 600v133h1255v-133h-1255z" />
<glyph unicode="&#x2018;" horiz-adv-x="342" d="M90 885v164q0 72 2 124t11.5 95t28 85t52.5 93l68 -45q-47 -70 -62.5 -128.5t-15.5 -135.5v-13h78v-239h-162z" />
<glyph unicode="&#x2019;" horiz-adv-x="342" d="M90 932q23 35 38 65.5t24.5 61.5t12.5 64.5t3 72.5v12h-78v238h162v-162q0 -74 -2 -125t-11.5 -94t-27.5 -85t-53 -95z" />
<glyph unicode="&#x201a;" horiz-adv-x="342" d="M90 0v238h162v-164q0 -72 -2 -123t-11.5 -94t-27.5 -85t-53 -96l-68 48q23 35 38 65.5t24.5 61t12.5 64.5t3 73v12h-78z" />
<glyph unicode="&#x201c;" horiz-adv-x="598" d="M90 885v164q0 72 2 124t11.5 95t28 85t52.5 93l68 -45q-47 -70 -62.5 -128.5t-15.5 -135.5v-13h78v-239h-162zM346 885v164q0 74 2 126t11.5 95t29 84t51.5 92l68 -45q-47 -70 -63.5 -128.5t-16.5 -135.5v-13h80v-239h-162z" />
<glyph unicode="&#x201d;" horiz-adv-x="598" d="M90 932q23 35 38 65.5t24.5 61.5t12.5 64.5t3 72.5v12h-78v238h162v-162q0 -74 -2 -125t-11.5 -94t-27.5 -85t-53 -95zM346 932q23 35 38 65.5t24.5 61.5t12.5 64.5t3 72.5v12h-78v238h162v-162q0 -74 -2 -125t-11.5 -94t-27.5 -85t-53 -95z" />
<glyph unicode="&#x201e;" horiz-adv-x="598" d="M90 0v238h162v-164q0 -72 -2 -123t-11.5 -94t-27.5 -85t-53 -96l-68 48q23 35 38 65.5t24.5 61t12.5 64.5t3 73v12h-78zM346 0v238h162v-164q0 -72 -2 -123t-11.5 -94t-27.5 -85t-53 -96l-68 48q23 35 38 65.5t24.5 61t12.5 64.5t3 73v12h-78z" />
<glyph unicode="&#x2022;" horiz-adv-x="681" d="M96 723q0 51 19.5 95t52.5 77t77 52.5t95 19.5t95 -19.5t77 -52.5t52.5 -77t19.5 -95t-19.5 -95t-52.5 -77t-77 -52.5t-95 -19.5t-95 19.5t-77 52.5t-52.5 77t-19.5 95z" />
<glyph unicode="&#x2026;" horiz-adv-x="2048" d="M260 0v238h162v-238h-162zM944 0v238h162v-238h-162zM1628 0v238h162v-238h-162z" />
<glyph unicode="&#x202f;" horiz-adv-x="371" />
<glyph unicode="&#x2039;" horiz-adv-x="512" d="M88 633l244 379l96 -60l-203 -319l203 -289l-96 -63z" />
<glyph unicode="&#x203a;" horiz-adv-x="512" d="M84 342l203 317l-203 289l96 64l244 -353l-244 -378z" />
<glyph unicode="&#x205f;" horiz-adv-x="464" />
<glyph unicode="&#x2122;" horiz-adv-x="1406" d="M49 1362v86h537v-86h-217v-594h-97v594h-223zM643 768v680h137l178 -559l175 559h137v-680h-94v446l4 138l-35 -119l-148 -465h-86l-147 467l-35 115l6 -136v-446h-92z" />
<glyph unicode="&#x25fc;" horiz-adv-x="972" d="M0 0v973h973v-973h-973z" />
</font>
</defs>
</svg>
