<?xml version="1.0" encoding="utf-8"?>
<!-- Generator: Adobe Illustrator 16.0.0, SVG Export Plug-In . SVG Version: 6.00 Build 0)  -->
<!DOCTYPE svg PUBLIC "-//W3C//DTD SVG 1.1//EN" "http://www.w3.org/Graphics/SVG/1.1/DTD/svg11.dtd">
<svg version="1.1" id="Layer_3" xmlns="http://www.w3.org/2000/svg" xmlns:xlink="http://www.w3.org/1999/xlink" x="0px" y="0px"
	 width="27px" height="27px" viewBox="0 0 27 27" enable-background="new 0 0 27 27" xml:space="preserve">
<g id="XMLID_1_">
	<g>
		<rect x="18" y="5" fill="#FFFFFF" width="3" height="3"/>
		<path fill="#FFFFFF" d="M6,13.5c0,4.14,3.36,7.5,7.5,7.5c4.14,0,7.5-3.36,7.5-7.5c0-0.17-0.01-0.33-0.03-0.5h5.3
			c0.011,0.17,0.03,0.33,0.03,0.5c0,7.06-5.74,12.8-12.8,12.8c-7.06,0-12.8-5.74-12.8-12.8c0-0.17,0.02-0.33,0.03-0.5h5.3
			C6.01,13.17,6,13.33,6,13.5z"/>
		<path fill="#FFFFFF" d="M14.71,9.18c0.16,0.05,0.32,0.09,0.47,0.15c0.15,0.06,0.28,0.14,0.42,0.21C15.7,9.6,15.81,9.65,15.91,9.71
			c0.16,0.1,0.31,0.22,0.45,0.35c0.06,0.04,0.12,0.09,0.17,0.14c0.17,0.15,0.319,0.31,0.46,0.49c0.02,0.03,0.05,0.06,0.069,0.09
			c0.15,0.2,0.29,0.41,0.4,0.63c0.01,0.01,0.01,0.02,0.021,0.03c0.239,0.48,0.409,1,0.47,1.56c0.02,0.17,0.05,0.33,0.05,0.5
			c0,2.49-2.01,4.5-4.5,4.5S9,15.99,9,13.5c0-0.17,0.03-0.33,0.05-0.5c0.06-0.56,0.23-1.08,0.47-1.56c0.01-0.01,0.01-0.02,0.02-0.03
			c0.11-0.22,0.25-0.44,0.4-0.64c0.02-0.02,0.05-0.05,0.07-0.08c0.14-0.17,0.29-0.34,0.46-0.5c0.05-0.04,0.11-0.09,0.16-0.13
			c0.15-0.13,0.3-0.25,0.47-0.35c0.09-0.06,0.19-0.11,0.29-0.16c0.14-0.08,0.28-0.16,0.43-0.22c0.15-0.06,0.31-0.1,0.47-0.14
			c0.11-0.04,0.22-0.08,0.34-0.1C12.91,9.03,13.2,9,13.5,9s0.59,0.03,0.88,0.09C14.49,9.11,14.59,9.15,14.71,9.18z"/>
		<path fill="#FFFFFF" d="M5.05,2.98c0.07-0.06,0.14-0.1,0.21-0.16C5.5,2.64,5.74,2.45,6,2.28V11H5V3.02
			C5.02,3.01,5.03,2.99,5.05,2.98z"/>
		<path fill="#FFFFFF" d="M4,3.92V11H3V5.03c0.08-0.1,0.16-0.2,0.25-0.3C3.27,4.7,3.29,4.68,3.31,4.66C3.54,4.41,3.76,4.16,4,3.92z"
			/>
		<path d="M21,5h-3v3h3V5z M13.5,18c2.49,0,4.5-2.01,4.5-4.5c0-0.17-0.03-0.33-0.05-0.5c-0.061-0.56-0.23-1.08-0.47-1.56
			c-0.011-0.01-0.011-0.02-0.021-0.03c-0.11-0.22-0.25-0.43-0.4-0.63c-0.02-0.03-0.05-0.06-0.069-0.09
			c-0.141-0.18-0.29-0.34-0.46-0.49c-0.05-0.05-0.11-0.1-0.17-0.14c-0.141-0.13-0.29-0.25-0.45-0.35C15.81,9.65,15.7,9.6,15.6,9.54
			c-0.14-0.07-0.27-0.15-0.42-0.21c-0.149-0.06-0.31-0.1-0.47-0.15c-0.12-0.03-0.22-0.07-0.33-0.09C14.09,9.03,13.8,9,13.5,9
			s-0.59,0.03-0.87,0.09c-0.12,0.02-0.23,0.06-0.34,0.1c-0.16,0.04-0.32,0.08-0.47,0.14c-0.15,0.06-0.29,0.14-0.43,0.22
			c-0.1,0.05-0.2,0.1-0.29,0.16c-0.17,0.1-0.32,0.22-0.47,0.35c-0.05,0.04-0.11,0.09-0.16,0.13c-0.17,0.16-0.32,0.33-0.46,0.5
			c-0.02,0.03-0.05,0.06-0.07,0.08c-0.15,0.2-0.29,0.42-0.4,0.64c-0.01,0.01-0.01,0.02-0.02,0.03c-0.24,0.48-0.41,1-0.47,1.56
			C9.03,13.17,9,13.33,9,13.5C9,15.99,11.01,18,13.5,18z M6.03,13h-5.3c-0.01,0.17-0.03,0.33-0.03,0.5c0,7.06,5.74,12.8,12.8,12.8
			c7.06,0,12.8-5.74,12.8-12.8c0-0.17-0.02-0.33-0.03-0.5h-5.3C20.99,13.17,21,13.33,21,13.5c0,4.14-3.36,7.5-7.5,7.5
			C9.36,21,6,17.64,6,13.5C6,13.33,6.01,13.17,6.03,13z M5,3.02V11h1V2.28c0.02-0.02,0.05-0.03,0.07-0.05
			c0.1-0.06,0.21-0.12,0.31-0.18c0.25-0.16,0.51-0.32,0.78-0.47c0.14-0.07,0.28-0.13,0.42-0.2c0.24-0.12,0.48-0.24,0.74-0.35
			C8.49,0.96,8.67,0.9,8.85,0.84C9.08,0.75,9.3,0.67,9.54,0.59c0.22-0.06,0.44-0.11,0.67-0.17c0.2-0.05,0.4-0.11,0.6-0.15
			c0.28-0.06,0.56-0.09,0.84-0.13c0.16-0.02,0.32-0.05,0.49-0.07C12.58,0.02,13.04,0,13.5,0s0.92,0.02,1.36,0.07
			c0.17,0.02,0.33,0.05,0.489,0.07c0.28,0.04,0.561,0.07,0.841,0.13c0.199,0.04,0.399,0.1,0.6,0.15c0.22,0.06,0.45,0.11,0.67,0.17
			c0.23,0.07,0.46,0.16,0.68,0.25c0.181,0.06,0.36,0.12,0.54,0.19c0.25,0.11,0.49,0.23,0.74,0.35c0.14,0.07,0.28,0.13,0.42,0.2
			c0.271,0.15,0.521,0.3,0.78,0.46c0.1,0.07,0.21,0.13,0.31,0.19c0.28,0.19,0.54,0.38,0.801,0.59c0.069,0.05,0.149,0.1,0.22,0.16
			c0.28,0.22,0.54,0.46,0.8,0.71c0.05,0.04,0.1,0.08,0.14,0.12c0.28,0.27,0.54,0.55,0.79,0.84C23.7,4.68,23.73,4.7,23.75,4.73
			c0.26,0.31,0.51,0.63,0.75,0.96c0.01,0.01,0.01,0.02,0.02,0.03C26.08,7.92,27,10.6,27,13.5C27,20.96,20.96,27,13.5,27
			S0,20.96,0,13.5c0-2.9,0.92-5.58,2.48-7.78c0-0.01,0.01-0.02,0.01-0.02C2.65,5.47,2.82,5.25,3,5.03V11h1V3.92
			c0.04-0.04,0.07-0.07,0.11-0.11S4.2,3.74,4.24,3.7C4.48,3.47,4.74,3.24,5,3.02z"/>
	</g>
	<g>
	</g>
</g>
</svg>
