<?xml version="1.0" encoding="utf-8"?>
<!-- Generator: Adobe Illustrator 16.0.0, SVG Export Plug-In . SVG Version: 6.00 Build 0)  -->
<!DOCTYPE svg PUBLIC "-//W3C//DTD SVG 1.1//EN" "http://www.w3.org/Graphics/SVG/1.1/DTD/svg11.dtd">
<svg version="1.1" id="Layer_1" xmlns="http://www.w3.org/2000/svg" xmlns:xlink="http://www.w3.org/1999/xlink" x="0px" y="0px"
	 width="27px" height="27px" viewBox="0 0 27 27" enable-background="new 0 0 27 27" xml:space="preserve">
<g id="XMLID_1_">
	<g>
		<path fill="#FFFFFF" d="M13.5,0.7c7.06,0,12.8,5.74,12.8,12.8c0,7.06-5.74,12.8-12.8,12.8c-7.06,0-12.8-5.74-12.8-12.8
			C0.7,6.44,6.44,0.7,13.5,0.7z M19.55,11.37c0-0.98-0.79-1.77-1.76-1.77h-5.26V7.76c0-0.97-0.79-1.76-1.77-1.76
			C9.79,6,9,6.79,9,7.76v7.57c0,1.08,0.5,2.229,1.38,3.15C11.3,19.45,12.51,20,13.69,20h4.1c0.97,0,1.76-0.79,1.76-1.76
			c0-0.98-0.79-1.771-1.76-1.771h-4.1c-0.52,0-1.16-0.81-1.16-1.14v-2.2h5.26C18.76,13.13,19.55,12.34,19.55,11.37z"/>
		<path d="M17.79,9.6c0.97,0,1.76,0.79,1.76,1.77c0,0.97-0.79,1.76-1.76,1.76h-5.26v2.2c0,0.33,0.64,1.14,1.16,1.14h4.1
			c0.97,0,1.76,0.79,1.76,1.771c0,0.97-0.79,1.76-1.76,1.76h-4.1c-1.18,0-2.39-0.55-3.31-1.52C9.5,17.56,9,16.41,9,15.33V7.76
			C9,6.79,9.79,6,10.76,6c0.98,0,1.77,0.79,1.77,1.76V9.6H17.79z"/>
		<path d="M26.3,13.5c0-7.06-5.74-12.8-12.8-12.8C6.44,0.7,0.7,6.44,0.7,13.5c0,7.06,5.74,12.8,12.8,12.8
			C20.56,26.3,26.3,20.56,26.3,13.5z M13.5,0C20.96,0,27,6.04,27,13.5S20.96,27,13.5,27S0,20.96,0,13.5S6.04,0,13.5,0z"/>
	</g>
	<g>
	</g>
</g>
</svg>
