<?xml version="1.0" encoding="utf-8"?>
<!-- Generator: Adobe Illustrator 16.0.0, SVG Export Plug-In . SVG Version: 6.00 Build 0)  -->
<!DOCTYPE svg PUBLIC "-//W3C//DTD SVG 1.1//EN" "http://www.w3.org/Graphics/SVG/1.1/DTD/svg11.dtd">
<svg version="1.1" id="Layer_1" xmlns="http://www.w3.org/2000/svg" xmlns:xlink="http://www.w3.org/1999/xlink" x="0px" y="0px"
	 width="27px" height="27px" viewBox="0 0 27 27" enable-background="new 0 0 27 27" xml:space="preserve">
<g>
	<g id="XMLID_1_">
		<g>
			<path fill="#FFFFFF" d="M15.4,8.84c-0.771,0-1.101,0.5-1.101,1.07c0,0.54,0,1.27,0,2.1h2.83l-0.39,2.84H14.3
				c0,3.45,0,7.15,0,7.15h-2.83c0,0,0-3.71,0-7.15H9v-2.84h2.47c0-0.78,0-1.46,0-1.97C11.47,7.42,12.98,6,15.4,6h1.85v2.84H15.4z"/>
			<path fill="#4C67A1" d="M15.4,8.84h1.85V6H15.4c-2.42,0-3.93,1.42-3.93,4.04c0,0.51,0,1.19,0,1.97H9v2.84h2.47
				c0,3.44,0,7.15,0,7.15h2.83c0,0,0-3.7,0-7.15h2.44l0.39-2.84H14.3c0-0.83,0-1.56,0-2.1C14.3,9.34,14.63,8.84,15.4,8.84z
				 M13.5,0.7c7.06,0,12.8,5.74,12.8,12.8c0,7.06-5.74,12.8-12.8,12.8c-7.06,0-12.8-5.74-12.8-12.8C0.7,6.44,6.44,0.7,13.5,0.7z"/>
			<path fill="#4C67A1" d="M13.5,26.3c7.06,0,12.8-5.74,12.8-12.8c0-7.06-5.74-12.8-12.8-12.8C6.44,0.7,0.7,6.44,0.7,13.5
				C0.7,20.56,6.44,26.3,13.5,26.3z M13.5,0C20.96,0,27,6.04,27,13.5S20.96,27,13.5,27S0,20.96,0,13.5S6.04,0,13.5,0z"/>
		</g>
		<g>
		</g>
	</g>
</g>
</svg>
