<?xml version="1.0" encoding="utf-8"?>
<!-- Generator: Adobe Illustrator 16.0.0, SVG Export Plug-In . SVG Version: 6.00 Build 0)  -->
<!DOCTYPE svg PUBLIC "-//W3C//DTD SVG 1.1//EN" "http://www.w3.org/Graphics/SVG/1.1/DTD/svg11.dtd">
<svg version="1.1" id="Layer_1" xmlns="http://www.w3.org/2000/svg" xmlns:xlink="http://www.w3.org/1999/xlink" x="0px" y="0px"
	 width="14px" height="15px" viewBox="0 0 14 15" enable-background="new 0 0 14 15" xml:space="preserve">
<g>
	<path d="M14,11.441l-0.009-0.004v-9.04L8.238,0L0,1.31v8.738l4.48,4.636l9.511-2.369v-0.858L14,11.441z M8.609,1.32l3.721,1.551
		L8.609,3.209V1.32z M7.534,3.307L5.18,3.52L2.408,2.016l5.126-0.815V3.307z M7.534,4.388v3.487L5.381,8.277V4.583L7.534,4.388z
		 M4.305,4.27v4.21L1.076,9.084V2.519L4.305,4.27z M4.305,9.574v3.378l-2.767-2.86L4.305,9.574z M8.064,8.871l4.24,2.754
		L5.381,13.35V9.373L8.064,8.871z M8.609,7.941v-3.65L12.915,3.9v6.838L8.609,7.941z"/>
	<rect fill="none" width="14" height="15"/>
</g>
</svg>
