<?xml version="1.0" encoding="utf-8"?>
<!-- Generator: Adobe Illustrator 16.0.0, SVG Export Plug-In . SVG Version: 6.00 Build 0)  -->
<!DOCTYPE svg PUBLIC "-//W3C//DTD SVG 1.1//EN" "http://www.w3.org/Graphics/SVG/1.1/DTD/svg11.dtd">
<svg version="1.1" id="Layer_1" xmlns="http://www.w3.org/2000/svg" xmlns:xlink="http://www.w3.org/1999/xlink" x="0px" y="0px"
	 width="95px" height="15px" viewBox="0 0 95 15" enable-background="new 0 0 95 15" xml:space="preserve">
<g>
	<g>
		<path d="M1,3H0v1v1v3v1h1h3V8V5V4H1V3z M3,5v3H1V5H3z"/>
		<rect x="37" y="8" width="3" height="1"/>
		<polygon points="37,4 37,5 39,5 39,6 37,6 37,5 36,5 36,6 36,7 36,8 37,8 37,7 39,7 40,7 40,6 40,4 39,4 		"/>
		<rect x="19" y="5" width="1" height="4"/>
		<polygon points="17,4 17,3 16,3 16,4 16,5 16,9 17,9 17,5 19,5 19,4 		"/>
		<rect x="66" y="5" width="1" height="4"/>
		<polygon points="64,4 63,4 63,5 63,9 64,9 64,5 66,5 66,4 		"/>
		<rect x="84" y="5" width="1" height="4"/>
		<polygon points="83,4 82,4 81,4 80,4 80,5 80,9 81,9 81,5 82,5 82,9 83,9 83,5 84,5 84,4 		"/>
		<path d="M44,4h-3v1v3v1h3h1V8V5V4V3h-1V4z M44,8h-2V5h2V8z"/>
		<polygon points="70,4 70,9 71,9 74,9 74,8 74,7 73,7 73,8 71,8 71,5 73,5 73,6 74,6 74,5 74,4 71,4 		"/>
		<polygon points="31,4 31,6 31,7 32,7 34,7 34,8 31,8 31,9 34,9 35,9 35,7 35,6 34,6 32,6 32,5 35,5 35,4 32,4 		"/>
		<polygon points="51,4 51,6 51,7 52,7 54,7 54,8 51,8 51,9 54,9 55,9 55,7 55,6 54,6 52,6 52,5 55,5 55,4 52,4 		"/>
		<path d="M58,4v1v3v1h3v1h1V9V8V5V4h-1H58z M61,8h-2V5h2V8z"/>
		<rect x="47" y="8" width="3" height="1"/>
		<polygon points="47,4 47,5 49,5 49,6 47,6 47,5 46,5 46,6 46,7 46,8 47,8 47,7 49,7 50,7 50,6 50,4 49,4 		"/>
		<path d="M22,4h-1v5h1h2h1V4h-1H22z M24,8h-2V5h2V8z"/>
		<rect x="14" y="3" width="1" height="1"/>
		<rect x="14" y="5" width="1" height="4"/>
		<rect x="56" y="3" width="1" height="1"/>
		<rect x="56" y="5" width="1" height="4"/>
		<rect x="68" y="8" width="1" height="1"/>
		<polygon points="8,8 6,8 6,4 5,4 5,9 6,9 8,9 8,10 9,10 9,9 9,8 9,4 8,4 		"/>
		<rect x="6" y="10" width="2" height="1"/>
		<path d="M76,4h-1v5h1h2h1V4h-1H76z M78,8h-2V5h2V8z"/>
		<rect x="59" y="10" width="2" height="1"/>
		<polygon points="29,8 27,8 27,9 29,9 30,9 30,8 30,4 29,4 		"/>
		<rect x="26" y="4" width="1" height="4"/>
	</g>
	<rect fill="none" width="95" height="15"/>
</g>
</svg>
