<?xml version="1.0" encoding="utf-8"?>
<!-- Generator: Adobe Illustrator 16.0.0, SVG Export Plug-In . SVG Version: 6.00 Build 0)  -->
<!DOCTYPE svg PUBLIC "-//W3C//DTD SVG 1.1//EN" "http://www.w3.org/Graphics/SVG/1.1/DTD/svg11.dtd">
<svg version="1.1" id="Layer_1" xmlns="http://www.w3.org/2000/svg" xmlns:xlink="http://www.w3.org/1999/xlink" x="0px" y="0px"
	 width="71px" height="22px" viewBox="0 0 71 22" enable-background="new 0 0 71 22" xml:space="preserve">
<g>
	<defs>
		<rect id="SVGID_1_" width="71" height="21.977"/>
	</defs>
	<clipPath id="SVGID_2_">
		<use xlink:href="#SVGID_1_"  overflow="visible"/>
	</clipPath>
	<path clip-path="url(#SVGID_2_)" fill="#ED174F" d="M40.676,15.715v1.09c0,3.613-0.879,4.23-1.585,4.23
		c-0.268,0-0.923-0.221-0.923-1.115c0-1.25,1.192-2.672,1.563-3.111L40.676,15.715z M39.258,6.464c0.837,0,1.208,0.946,1.208,2.78
		c0,2.766-0.75,4.34-1.66,4.34c-0.581,0-1.25-1.045-1.216-3.104C37.59,9.163,37.982,6.464,39.258,6.464 M53.914,6.451
		c0.643,0,1.293,0.641,1.293,2.917c0,2.864-0.953,4.198-1.685,4.198c-0.688,0-1.208-1.062-1.208-3.148
		C52.314,8.309,52.823,6.451,53.914,6.451 M30.807,6.451c0.641,0,1.292,0.641,1.292,2.917c0,2.864-0.952,4.198-1.684,4.198
		c-0.687,0-1.208-1.062-1.208-3.148C29.207,8.309,29.716,6.451,30.807,6.451 M23.523,0.033c-0.32,0-0.457,0.183-0.472,0.751
		L22.98,3.133l-1.874-0.071c-0.114-0.003-0.166,0.036-0.215,0.146c-0.159,0.327-0.243,0.583-0.243,1.01
		c0,0.348,0.143,0.385,0.272,0.385l1.95,0.061l-0.006,4.489c0,0.952-0.548,2.188-1.52,3.216c0,0,0.083-0.311,0.078-0.637
		c0-0.922-0.54-1.755-1.261-2.346l-1.76-1.451c0.369-0.468,0.994-1.396,0.994-2.179c0-0.607-0.349-0.862-0.998-0.862
		c-0.917,0-1.98,0.92-1.98,2.285c0,0.497,0.202,0.945,0.509,1.287c-0.423,0.882-1.023,2.042-1.468,2.868
		c-0.337,0.633-0.906,1.6-1.242,1.6c-0.248,0-0.363-0.426-0.363-2.07c0-1.367,0.088-2.853,0.133-4.278
		c0-0.327-0.049-0.629-0.436-0.924c-0.356-0.25-0.796-0.6-1.249-0.6c-1.007,0-1.693,1.016-2.163,2.009
		C9.651,8.1,9.387,8.967,9.016,10.225l0.041-4.331C9.07,5.585,8.998,5.466,8.773,5.36C8.481,5.225,8.05,5.068,7.668,5.068
		c-0.319,0-0.358,0.151-0.358,0.518l-0.043,5.197l-0.005,2.006c0,1.807,0.207,2.107,1.185,2.107c0.542,0,0.715-0.07,0.726-0.562
		c0.015-0.328,0.157-1.117,0.35-1.912c0.564-2.34,1.231-4.191,2.383-5.603c0.12-0.137,0.212-0.088,0.193,0.106
		c0,0-0.182,3.168-0.182,4.463c0,2.305,0.324,3.508,1.37,3.508c1.027,0,2.035-1.445,2.586-2.422l1.765-3.237
		c1.144,1.067,1.943,1.897,1.943,2.905c0,0.625-0.361,1.238-0.91,1.238c-0.686,0-1.125-0.793-1.589-0.793
		c-0.385,0-0.879,0.814-0.879,1.277c0,0.436,0.87,1.055,2.429,1.055c2.302,0,3.537-1.732,4.278-3.65
		c0.142,2.275,0.969,3.605,2.26,3.605c0.846,0,1.824-1.172,2.269-2.604c0,0,0.044,0.371,0.382,1.133
		c0.465,0.994,1.173,1.451,2.051,1.451c1.092,0,2.027-0.727,2.597-1.943c0.087,0.922,0.794,1.939,1.931,1.939
		c0.714,0,1.363-0.6,1.792-1.588c0,0,0.553,1.631,2.152,1.631c0.899,0,1.964-0.912,2.219-1.576l0.027,0.965l-2.375,2.4
		c-0.688,0.734-1.423,1.787-1.423,2.955c0,1.484,1.279,2.338,2.404,2.338c1.169,0,1.945-0.812,2.37-1.494
		c0.535-0.879,0.761-2.539,0.761-4.162l-0.053-2.439c1.601-1.928,2.853-4.593,3.411-6.479L46.9,7.367
		c0.235-0.017,0.224,0.084,0.19,0.235c-0.213,0.988-0.399,2.108-0.399,3.224c0,1.842,0.388,2.645,0.943,3.301
		c0.484,0.549,0.966,0.732,1.473,0.732c0.99,0,1.611-0.896,1.81-1.461c0.465,0.994,1.15,1.457,2.028,1.457
		c1.093,0,2.027-0.725,2.598-1.943c0.086,0.922,0.793,1.939,1.931,1.939c0.85,0,1.343-0.537,1.729-1.551
		c0.008,0.326,0.02,0.674,0.028,1c0.01,0.168,0.133,0.275,0.243,0.318c0.36,0.148,0.678,0.225,0.963,0.225
		c0.742,0,0.903-0.168,0.903-0.699c0-0.879,0.023-2.264,0.251-3.377c0.241-1.109,0.606-2.364,1.108-3.237
		c0.046-0.09,0.157-0.066,0.161,0.043c0.073,1.868,0.187,5.03,0.634,5.849c0.221,0.391,0.563,0.676,1.074,0.676
		c0.24,0,0.534-0.113,0.608-0.182c0.076-0.066,0.114-0.139,0.11-0.273c0-2.387,0.679-4.699,1.36-6.253
		c0.018-0.046,0.07-0.05,0.069,0.011l-0.037,1.721c0,2.826,0.185,4.611,1.473,5.469c0.197,0.121,0.475,0.236,0.829,0.236
		c0.659,0,1.257-0.402,1.552-1.053C70.774,13.27,71,12.299,71,11.75c0-0.213,0.002-0.559-0.315-0.559
		c-0.176,0-0.279,0.141-0.321,0.354c-0.103,0.461-0.186,0.857-0.342,1.314c-0.151,0.436-0.375,0.689-0.642,0.689
		c-0.312,0-0.471-0.27-0.562-0.438c-0.399-0.666-0.432-2.197-0.432-3.477l0.097-3.291c0-0.272-0.104-0.598-0.487-0.838
		c-0.257-0.162-0.908-0.468-1.307-0.468c-0.369,0-0.548,0.23-0.682,0.566c-0.251,0.606-1.087,2.979-1.311,4.908
		c-0.008,0.053-0.066,0.062-0.07-0.002C64.51,9.144,64.451,7.5,64.452,6.39c0-0.335-0.075-0.814-0.724-1.125
		c-0.315-0.143-0.576-0.231-0.896-0.231c-0.395,0-0.479,0.212-0.622,0.493c-0.447,0.907-0.757,2.09-1.221,3.581l0.007-3.413
		c0-0.16-0.09-0.369-0.345-0.426c-0.634-0.159-0.928-0.232-1.178-0.232c-0.183,0-0.282,0.159-0.282,0.331l-0.034,5.821
		c-0.123,0.711-0.62,2.412-1.325,2.412c-0.579,0-0.849-0.643-0.849-3.328l0.104-4.367c0-0.276-0.165-0.391-0.405-0.508
		c-0.345-0.15-0.618-0.21-0.968-0.21c-0.438,0-0.59,0.231-0.501,0.784c-0.482-0.716-0.965-1.111-1.817-1.111
		c-1.711,0-3.001,2.256-3.001,5.535c-0.018,0.92,0.186,1.834,0.186,1.834c-0.155,0.764-0.519,1.385-1.021,1.385
		c-0.636,0-1.039-0.982-1.039-2.688c0-1.708,0.594-3.636,0.594-4.159c0-0.608-0.363-0.992-1.006-0.992
		c-0.322,0-1.517,0.297-2.128,0.394c0,0,0.068-0.319,0.063-0.57c0-0.599-0.257-0.975-0.893-0.975c-0.778,0-1.35,0.609-1.35,1.647
		c0,0.466,0.245,0.898,0.569,1.129c-0.421,1.924-1.104,3.354-2.113,4.951l0.085-6.47c0-0.21-0.051-0.341-0.427-0.501
		c-0.198-0.094-0.521-0.202-0.931-0.202c-0.591,0-0.552,0.463-0.521,0.809c-0.271-0.526-0.863-1.15-1.777-1.15
		c-2.492,0-3.257,4.165-2.882,7.122c0,0.361-0.321,1.641-1.047,1.641c-0.578,0-0.849-0.643-0.849-3.328l0.106-4.367
		c0-0.276-0.167-0.391-0.407-0.508c-0.344-0.15-0.617-0.21-0.967-0.21c-0.439,0-0.59,0.231-0.501,0.784
		c-0.483-0.716-0.966-1.111-1.819-1.111c-1.711,0-3.018,2.063-3.018,5.342c0,1.252-0.983,3.162-1.673,3.162
		c-0.383,0-0.79-0.771-0.79-2.74c0.001-1.342,0.168-5.911,0.168-5.911l2.407-0.043c0.115-0.001,0.181-0.139,0.224-0.223
		c0.11-0.246,0.164-0.41,0.164-0.704c0-0.265-0.049-0.362-0.359-0.381l-2.399-0.158l0.102-2.45c0.008-0.154-0.078-0.255-0.232-0.331
		C24.453,0.225,23.884,0.033,23.523,0.033 M4.068,0C3.419,0,2.577,0.755,2.08,1.257C0.989,2.319,0,4.273,0,5.84
		c0,2.228,1.728,3.069,2.165,3.069c0.144,0,0.267-0.082,0.267-0.296c0-0.168-0.097-0.308-0.194-0.451
		C1.838,7.491,1.71,6.851,1.71,5.987c0-1.8,0.757-3.45,1.385-4.205C3.211,1.646,3.473,1.35,3.551,1.35s0.097,0.07,0.097,0.284
		L3.575,13.416c0,1.842-0.485,2.574-0.485,3.008c0,0.191,0.076,0.24,0.219,0.24c0.681,0,1.359-0.908,1.551-1.24
		c0.596-1.129,0.742-2.008,0.742-4.549V0.974c0-0.268-0.069-0.383-0.301-0.549C4.961,0.189,4.572,0,4.068,0"/>
</g>
</svg>
